<?xml version="1.0" encoding="utf-8"?>
<!-- Generator: Adobe Illustrator 23.1.1, SVG Export Plug-In . SVG Version: 6.00 Build 0)  -->
<svg version="1.1" id="Layer_1" xmlns="http://www.w3.org/2000/svg" xmlns:xlink="http://www.w3.org/1999/xlink" x="0px" y="0px"
	 viewBox="0 0 81 100" style="enable-background:new 0 0 81 100;" xml:space="preserve">
<style type="text/css">
	.st0{fill:#FFFFFF;}
	.st1{fill:#F79D00;}
</style>
<g>
	<path class="st0" d="M67.5,24.1L56.7,13.3l0,0H13.5v73.4h54V24.1z"/>
</g>
<g>
	<path class="st1" d="M67.5,24.1L56.7,13.3l0,0H13.5v73.4h54V24.1z M56.7,16.2l8.2,8.2h-8.2V16.2z M15.2,85V15H55v10.2l0,0V26l0,0
		h0.7c0.1,0,0.1,0,0.2,0c0.1,0,0.1,0,0.2,0h0.7h9.1v59H15.2z"/>
	<path class="st1" d="M25.7,49.2c-0.1,0-0.1,0-0.2,0c-1.3,0.1-2.3,1.1-2.3,2.4v8c0,1.3,1,2.3,2.3,2.4c0.1,0,0.1,0,0.2,0l0,0h5V49.2
		C30.7,49.2,25.7,49.2,25.7,49.2z M25.7,60.2C25.7,60.2,25.6,60.2,25.7,60.2h-0.1c-0.3,0-0.6-0.3-0.6-0.6v-8c0-0.3,0.3-0.6,0.7-0.6
		h0.1H29v9.2C29,60.2,25.7,60.2,25.7,60.2z"/>
	<path class="st1" d="M45.2,44.1c-0.5-1.1-1.7-1.7-2.8-1.5c-0.3,0.1-0.7,0.2-1,0.4l-7.5,5.3c-0.7,0.5-1.1,1.3-1.1,2.2v10.3
		c0,0.8,0.4,1.6,1.1,2.1l7.5,5.3c0.4,0.3,0.9,0.4,1.4,0.4c0.4,0,0.8-0.1,1.2-0.3c0.8-0.4,1.4-1.3,1.4-2.2v-21
		C45.5,44.8,45.4,44.5,45.2,44.1L45.2,44.1z M43.7,66.2c0,0.3-0.1,0.5-0.4,0.6c-0.3,0.1-0.6,0.1-0.8,0L35,61.5
		c-0.2-0.2-0.3-0.4-0.3-0.7V50.5c0-0.3,0.1-0.5,0.3-0.7l7.5-5.3c0.1-0.1,0.2-0.1,0.3-0.1h0.1c0.3,0,0.6,0.2,0.7,0.5
		c0,0.1,0.1,0.2,0.1,0.3C43.7,45.2,43.7,66.2,43.7,66.2z"/>
	<path class="st1" d="M56.8,54.6h-5.4c-0.5,0-1,0.4-1,1v0.1c0,0.5,0.4,1,1,1h5.4c0.5,0,1-0.4,1-1v-0.1l0,0
		C57.8,55.1,57.3,54.6,56.8,54.6z"/>
	<path class="st1" d="M48.6,46.2c0.3,0.5,0.9,0.6,1.3,0.4l4.7-2.7l0,0c0.5-0.3,0.6-0.9,0.4-1.3v-0.1l0,0l0,0
		c-0.3-0.5-0.9-0.6-1.3-0.4L49,44.8C48.5,45.1,48.3,45.7,48.6,46.2L48.6,46.2z"/>
	<path class="st1" d="M54.6,66.2L54.6,66.2l-4.7-2.7c-0.5-0.3-1.1-0.1-1.3,0.4V64c-0.3,0.5-0.1,1.1,0.4,1.3l4.7,2.7
		c0.5,0.3,1.1,0.1,1.3-0.4l0,0v-0.1C55.3,67.1,55.1,66.5,54.6,66.2z"/>
</g>
</svg>
