<?xml version="1.0" encoding="utf-8"?>
<svg viewBox="0 19.130001068115234 200 161.8000030517578" preserveAspectRatio="xMidYMid meet" focusable="false" class="style-scope iron-icon" style="pointer-events: none; display: block; width: 100%; height: 100%;"><g class="style-scope iron-icon"><path d="M35.8,72.25v55.5H14V72.25H35.8m14-14H12a12,12,0,0,0-12,12v59.5a12,12,0,0,0,12,12H49.8V58.25Z" style="fill:currentcolor" class="style-scope iron-icon"></path><path d="M118.8,35.26V164.74a21.66,21.66,0,0,1-1.84-1.2h0l-.15-.11L77.3,134.63V65.37l39.5-28.79,0,0,.12-.09c.56-.41,1.19-.82,1.85-1.21m4.75-16.13c-6.85,0-15,6.14-15,6.14l-45.25,33v83.5l45.25,33s8.15,6.14,15,6.14c5,0,9.25-3.23,9.25-14.37V33.5c0-11.14-4.29-14.37-9.25-14.37Z" style="fill:currentcolor" class="style-scope iron-icon"></path><path d="M191.74,91.74H158.31a8.29,8.29,0,0,0-8.26,8.26h0a8.29,8.29,0,0,0,8.26,8.26h33.43A8.29,8.29,0,0,0,200,100h0a8.29,8.29,0,0,0-8.26-8.26Z" style="fill:currentcolor" class="style-scope iron-icon"></path><path d="M154.09,131.68a8.48,8.48,0,0,0-6,14.47l23.33,23.33a8.48,8.48,0,1,0,12-12l-23.33-23.33a8.43,8.43,0,0,0-6-2.48Z" style="fill:currentcolor" class="style-scope iron-icon"></path><path d="M177.32,28.44a7.79,7.79,0,0,0-5.53,2.28L147.52,55a7.81,7.81,0,0,0,11,11.05l24.27-24.28a7.82,7.82,0,0,0,0-11h0a7.78,7.78,0,0,0-5.52-2.28Z" style="fill:currentcolor" class="style-scope iron-icon"></path></g></svg>