<?xml version="1.0" encoding="utf-8"?>
<!-- Generator: Adobe Illustrator 23.0.4, SVG Export Plug-In . SVG Version: 6.00 Build 0)  -->
<svg version="1.1" id="Layer_1" xmlns="http://www.w3.org/2000/svg" xmlns:xlink="http://www.w3.org/1999/xlink" x="0px" y="0px"
	 viewBox="0 0 200 100" style="enable-background:new 0 0 200 100;" xml:space="preserve">
<style type="text/css">
	.st0{opacity:0.15;fill:#39913F;}
	.st1{fill:#39913F;}
	.st2{fill:#178943;}
	.st3{opacity:0.6;fill:#39913F;enable-background:new    ;}
</style>
<g>
	<path id="Fill_17-2_1_" class="st0" d="M193.4,81.3c0,1.2-41.8,2.2-93.4,2.2s-93.4-1-93.4-2.2s41.8-2.2,93.4-2.2
		S193.4,80.1,193.4,81.3"/>
	<path id="Fill_20-4_1_" class="st1" d="M124.4,71.9L124.4,71.9c0.4,0,0.7-0.3,0.7-0.7V47.5c0-0.4-0.3-0.7-0.7-0.7
		c-0.4,0-0.7,0.3-0.7,0.7c0,0,0,0,0,0v23.7C123.8,71.6,124.1,71.9,124.4,71.9"/>
	<g>
		<path class="st1" d="M153.6,71.2l0-23.7c0-0.1,0-0.3-0.1-0.4c-0.1-0.2-0.3-0.3-0.6-0.3l-28.5,0c-0.4,0-0.7,0.3-0.7,0.7
			c0,0.4,0.3,0.7,0.7,0.7l10,0l0,4.5l-9.8,0c-0.4,0-0.7,0.3-0.7,0.7v0c0,0.4,0.3,0.7,0.7,0.7l9.8,0l0,4.5l-9.9,0
			c-0.4,0-0.7,0.3-0.7,0.7c0,0.4,0.3,0.7,0.7,0.7l9.9,0l0,4.5l-9.9,0c-0.4,0-0.7,0.3-0.7,0.7c0,0.4,0.3,0.7,0.7,0.7l9.9,0l0,4.5h-10
			c0,0,0,0,0,0c-0.4,0-0.7,0.3-0.7,0.7c0,0,0,0,0,0c0,0.4,0.3,0.7,0.7,0.7l28.5,0v0C153.3,71.9,153.6,71.6,153.6,71.2
			C153.6,71.2,153.6,71.2,153.6,71.2C153.6,71.2,153.6,71.2,153.6,71.2z M152.3,52.7l-7.6,0l0-4.5l7.6,0L152.3,52.7z M152.3,54.1
			l0,4.5l-7.6,0l0-4.5L152.3,54.1z M152.3,60l0,4.5l-7.6,0l0-4.5L152.3,60z M152.3,66l0,4.5h-7.6l0-4.5L152.3,66z M135.8,48.2l7.6,0
			l0,4.5l-7.6,0L135.8,48.2z M135.8,54.1l7.6,0l0,4.5l-7.6,0L135.8,54.1z M135.8,60l7.6,0l0,4.5l-7.6,0L135.8,60z M135.8,66l7.6,0
			l0,4.5h-7.6L135.8,66z"/>
		<path class="st1" d="M127.8,45c1.2,0,2.1-0.3,2.8-0.9c0.7-0.6,1.1-1.5,1.2-2.5l-2,0c0,0.5-0.2,1-0.5,1.3c-0.4,0.3-0.9,0.5-1.4,0.4
			c-0.6,0-1.2-0.2-1.5-0.7c-0.3-0.5-0.5-1.3-0.5-2.3v-0.7c0-1,0.2-1.8,0.5-2.3c0.3-0.5,0.9-0.8,1.5-0.7c0.5,0,1,0.1,1.4,0.4
			c0.3,0.4,0.5,0.9,0.5,1.4h2c-0.1-1-0.5-1.9-1.2-2.6c-0.7-0.6-1.6-0.9-2.7-0.9c-0.8,0-1.5,0.2-2.2,0.6c-0.6,0.4-1.1,1-1.4,1.7
			c-0.3,0.8-0.5,1.6-0.5,2.5v0.6c0,1.5,0.4,2.7,1.1,3.5C125.6,44.5,126.6,45,127.8,45z"/>
		<path class="st1" d="M138.7,43.1c-0.3,0.2-0.7,0.3-1.1,0.3c-1.3,0-1.9-0.5-1.9-1.6h-2c0,0.6,0.2,1.2,0.5,1.7
			c0.4,0.5,0.8,0.9,1.4,1.1c0.7,0.3,1.4,0.4,2.1,0.4c1.1,0,2-0.2,2.6-0.7c0.6-0.5,1-1.2,1-2c0-0.7-0.3-1.4-0.8-1.9
			c-0.5-0.5-1.4-0.9-2.5-1.3c-0.5-0.1-1-0.3-1.4-0.6c-0.3-0.2-0.5-0.5-0.5-0.8c0-0.3,0.1-0.6,0.4-0.8c0.3-0.2,0.7-0.3,1.2-0.3
			c0.4,0,0.9,0.1,1.2,0.4c0.3,0.3,0.4,0.7,0.4,1.1h2c0-0.6-0.1-1.1-0.5-1.6c-0.3-0.5-0.8-0.8-1.3-1.1c-0.6-0.3-1.2-0.4-1.9-0.4
			c-0.6,0-1.3,0.1-1.9,0.4c-0.5,0.2-1,0.5-1.3,1c-0.3,0.4-0.5,0.9-0.4,1.4c0,1,0.6,1.8,1.7,2.4c0.5,0.3,1.1,0.5,1.7,0.7
			c0.5,0.1,1,0.4,1.5,0.7c0.3,0.2,0.4,0.5,0.4,0.9C139.1,42.6,138.9,42.9,138.7,43.1z"/>
		<polygon class="st1" points="148.4,45 151.8,34.8 149.5,34.8 147.3,42.4 145.1,34.8 142.9,34.8 146.3,45 		"/>
	</g>
	<g>
		<path class="st2" d="M105.9,74.7c0-0.6-0.5-1.2-1.2-1.2c0,0,0,0,0,0l-6.2,0v-35c0-1.6-0.6-3.1-1.8-4.3c-1.1-1.1-2.7-1.8-4.3-1.8
			h-55c-3.4,0-6.1,2.7-6.1,6.1v35l-6.2,0c0,0,0,0,0,0c-0.6,0-1.2,0.5-1.2,1.2c0,1,0.2,2.8,1.6,4.3c1.2,1.2,3.1,1.9,5.5,1.9l67.8,0
			c2.4,0,4.2-0.6,5.5-1.9C105.7,77.5,105.9,75.6,105.9,74.7z M32.7,38.5c0-1.3,0.5-2.5,1.4-3.4c0.9-0.9,2.1-1.4,3.4-1.4h55
			c1.3,0,2.5,0.5,3.4,1.4c0.9,0.9,1.4,2.1,1.4,3.4v35l-2.8,0V36.1h0h-59h0v37.4l-2.8,0V38.5z M74.4,73.6c-0.6,0-1,0.4-1.1,0.9
			c-0.1,0.6-0.6,1-1.2,1H57.9c-0.6,0-1.1-0.4-1.2-1c-0.1-0.5-0.5-0.8-0.9-0.9c-0.1,0-0.1,0-0.2,0l-18.8,0V37.4h56.5v36.1L74.4,73.6z
			 M103.4,78c-1,1-2.5,1.5-4.6,1.5l-67.8,0c-2.1,0-3.6-0.5-4.6-1.5c-1-1.1-1.2-2.5-1.2-3.3l30.2,0c0.3,1.1,1.3,1.9,2.5,1.9H72
			c1.2,0,2.2-0.8,2.5-1.9l30.2-0.1C104.6,75.6,104.4,77,103.4,78z"/>
		<path class="st2" d="M87.5,45.6v-0.4h-4.6v-4.3h-0.4v4.3h-7.9v-4.3h-0.4v4.3h-9.9v-4.3H64v4.3h-9.9v-4.3h-0.4v4.3h-7.9v-4.3h-0.4
			v4.3h-4.6v0.4h4.6v4.7h-4.6v0.4h4.6v4.7h-4.6v0.4h4.6v5.7h-4.6v0.4h4.6v4.8h-4.6v0.4h4.6v2.7h0.4v-2.7h7.9v2.7h0.4v-2.7H64v2.7
			h0.4v-2.7h9.9v2.7h0.4v-2.7h7.9v2.7h0.4v-2.7h4.6v-0.4h-4.6v-4.8h4.6v-0.4h-4.6v-5.7h4.6v-0.4h-4.6v-4.7h4.6v-0.4h-4.6v-4.7H87.5z
			 M74.3,45.6v4.7h-9.9v-4.7H74.3z M64,55.7v5.7h-9.9v-5.7H64z M54.1,55.3v-4.7H64v4.7H54.1z M64.4,55.7h9.9v5.7h-9.9V55.7z
			 M64.4,55.3v-4.7h9.9v4.7H64.4z M64,45.6v4.7h-9.9v-4.7H64z M45.9,45.6h7.9v4.7h-7.9V45.6z M45.9,50.6h7.9v4.7h-7.9V50.6z
			 M45.9,55.7h7.9v5.7h-7.9V55.7z M45.9,66.5v-4.8h7.9v4.8H45.9z M54.1,66.5v-4.8H64v4.8H54.1z M64.4,66.5v-4.8h9.9v4.8H64.4z
			 M82.5,66.5h-7.9v-4.8h7.9V66.5z M82.5,61.4h-7.9v-5.7h7.9V61.4z M82.5,55.3h-7.9v-4.7h7.9V55.3z M82.5,50.3h-7.9v-4.7h7.9V50.3z"
			/>
		<polygon class="st2" points="45,42.4 42.8,44.7 45,44.7 		"/>
	</g>
	<g>
		<path class="st3" d="M161.9,26l-9.3-9.3c0,0-0.1-0.1-0.1-0.1c-0.1-0.1-0.3-0.1-0.4-0.1h-36c-0.4,0-0.7,0.3-0.7,0.7v62.3
			c0,0.4,0.3,0.7,0.7,0.7h45.3c0.1,0,0.2,0,0.3-0.1l0,0l0,0c0.3-0.1,0.4-0.4,0.4-0.7V26.6c0-0.1,0-0.1,0-0.2
			C162,26.3,162,26.1,161.9,26z M152.7,19l7.1,7.1h-7.1V19z M160.6,78.7h-43.8V17.9h34.5v8.9c0,0.4,0.3,0.7,0.7,0.7h8.6V78.7z"/>
		<path class="st3" d="M175.3,42.2l-1.6-5.2c0,0,0-0.1-0.1-0.1v0c-0.1-0.2-0.2-0.3-0.4-0.3c-0.1,0-0.1,0-0.2,0
			c-0.3,0-0.5,0.2-0.6,0.4l-1.7,5.3c0,0,0,0,0,0.1v37.2c0,0.1,0,0.2,0.1,0.3c0.1,0.3,0.3,0.4,0.6,0.4h3.3c0.3,0,0.6-0.3,0.6-0.6
			V42.4C175.4,42.4,175.3,42.3,175.3,42.2z M174.1,78.9H172V42.6l1-3.3l1,3.2V78.9z"/>
	</g>
</g>
</svg>
