<?xml version="1.0" encoding="utf-8"?>
<!-- Generator: Adobe Illustrator 23.0.4, SVG Export Plug-In . SVG Version: 6.00 Build 0)  -->
<svg version="1.1" id="Layer_1" xmlns="http://www.w3.org/2000/svg" xmlns:xlink="http://www.w3.org/1999/xlink" x="0px" y="0px"
	 viewBox="0 0 81 100" style="enable-background:new 0 0 81 100;" xml:space="preserve">
<style type="text/css">
	.st0{fill:#39913F;}
</style>
<g>
	<path class="st0" d="M57.8,49c0-0.5-0.4-0.8-0.8-0.8H24.1c0,0,0,0,0,0c-0.4,0-0.8,0.3-0.8,0.7c0,0,0,0.1,0,0.1c0,0,0,0,0,0v27.3
		c0,0,0,0,0,0c0,0,0,0,0,0c0,0,0,0,0,0c0,0.5,0.4,0.8,0.8,0.8h32.9c0,0,0,0,0,0c0.5,0,0.8-0.4,0.8-0.8c0,0,0,0,0,0c0,0,0,0,0,0
		L57.8,49L57.8,49C57.8,49,57.8,49,57.8,49z M56.2,61.9h-8.7v-5.2h8.7V61.9z M46,61.9h-8.8v-5.2H46V61.9z M35.6,61.9H24.8v-5.2h10.8
		V61.9z M24.8,63.5h10.8v5.2H24.8V63.5z M37.1,63.5H46v5.2h-8.8V63.5z M47.5,63.5h8.7v5.2h-8.7V63.5z M56.2,55h-8.7v-5.2h8.7V55z
		 M46,55h-8.8v-5.2H46V55z M35.6,55H24.8v-5.2h10.8V55z M24.8,70.3h10.8v5.2H24.8V70.3z M37.1,70.3H46v5.2h-8.8V70.3z M47.5,70.3
		h8.7v5.2h-8.7V70.3z"/>
	<path class="st0" d="M27.9,46.1c1.2,0.1,2.3-0.3,3.2-1.1c0.8-0.7,1.3-1.8,1.4-2.9l-2.3,0c0,0.6-0.2,1.1-0.6,1.5
		c-0.5,0.4-1,0.5-1.6,0.5c-0.7,0.1-1.4-0.3-1.8-0.9c-0.4-0.8-0.6-1.8-0.6-2.7v-0.9c-0.1-0.9,0.2-1.8,0.6-2.6
		c0.4-0.6,1.1-0.9,1.8-0.8c0.6,0,1.2,0.1,1.6,0.5c0.4,0.4,0.6,1,0.6,1.6h2.3c-0.1-1.1-0.6-2.2-1.4-3c-0.9-0.7-2-1.1-3.2-1.1
		c-0.9,0-1.7,0.2-2.5,0.7c-0.7,0.5-1.3,1.1-1.6,1.9c-0.4,0.9-0.6,1.9-0.6,2.9v0.7c0,1.7,0.4,3.1,1.3,4
		C25.4,45.6,26.6,46.2,27.9,46.1z"/>
	<path class="st0" d="M40.4,43.9c-0.4,0.2-0.8,0.4-1.3,0.3c-1.5,0-2.2-0.6-2.2-1.9h-2.3c0,0.7,0.2,1.4,0.6,1.9c0.4,0.6,1,1,1.6,1.3
		c0.8,0.3,1.6,0.5,2.4,0.5c1.1,0.1,2.1-0.2,3-0.8c0.7-0.5,1.2-1.4,1.1-2.3c0-0.8-0.3-1.6-0.9-2.2c-0.8-0.7-1.8-1.2-2.9-1.5
		c-0.6-0.2-1.1-0.4-1.6-0.7c-0.3-0.2-0.5-0.5-0.6-0.9c0-0.4,0.2-0.7,0.5-1c0.4-0.3,0.9-0.4,1.3-0.4c0.5,0,1,0.1,1.4,0.4
		c0.3,0.3,0.5,0.8,0.5,1.2h2.3c0-0.6-0.2-1.3-0.5-1.8c-0.4-0.5-0.9-1-1.5-1.2c-0.7-0.3-1.4-0.5-2.2-0.4c-0.7,0-1.5,0.1-2.2,0.4
		c-0.6,0.2-1.1,0.6-1.5,1.1c-0.3,0.5-0.5,1.1-0.5,1.6c0,1.2,0.6,2.1,1.9,2.8c0.6,0.3,1.3,0.6,1.9,0.8c0.6,0.2,1.2,0.4,1.7,0.7
		c0.3,0.2,0.5,0.6,0.5,1C40.9,43.4,40.8,43.7,40.4,43.9z"/>
	<polygon class="st0" points="51.7,46.1 55.6,34.5 53,34.5 50.5,43.2 47.9,34.5 45.3,34.5 49.2,46.1 	"/>
	<path class="st0" d="M67.5,85.8c0-0.1,0-0.1,0-0.2V85v-59v-1.1v-0.5v-0.3H67L56.7,13.8v-0.5h0h-0.7c-0.1,0-0.1,0-0.2,0
		c-0.1,0-0.1,0-0.2,0H55H15.2h-0.7c-0.1,0-0.1,0-0.2,0c-0.1,0-0.1,0-0.2,0h-0.7V14c0,0.1,0,0.1,0,0.2c0,0.1,0,0.1,0,0.2V15v70v0.7
		c0,0.1,0,0.1,0,0.2c0,0.1,0,0.1,0,0.2v0.7h0.7c0.1,0,0.1,0,0.2,0c0.1,0,0.1,0,0.2,0h0.7h50.6h0.8h0h0.8V86
		C67.5,86,67.5,85.9,67.5,85.8z M56.7,16.2l8.2,8.2h-8.2V16.2z M15.2,85V15H55v10.2v0v0.8h0h0.7c0.1,0,0.1,0,0.2,0
		c0.1,0,0.1,0,0.2,0h0.7h9.1v59H15.2z"/>
</g>
</svg>
