<?xml version="1.0" encoding="utf-8"?>
<svg id="ps-excel" xmlns="http://www.w3.org/2000/svg" viewBox="0 0 170 170"><title>excel_1</title><path d="M138.74,34.69a1.67,1.67,0,0,0-.46-.86L116.86,12.4a1.81,1.81,0,0,0-1.22-.52H32.9a1.68,1.68,0,0,0-1.68,1.68V156.43h0a1.68,1.68,0,0,0,1.68,1.68H137.1a1.78,1.78,0,0,0,.81-.22l.17-.11a1.68,1.68,0,0,0,.7-1.36V35.63h0V35A1.68,1.68,0,0,0,138.74,34.69Z" style="fill:#fff"/><path d="M60.2,62l4.15-8H69.6L63.15,65.56l6.62,11.71H64.46L60.2,69.13l-4.26,8.13H50.63l6.62-11.7L50.8,54H56Z" style="fill:#39913f"/><rect x="75.33" y="54.06" width="44.03" height="3.26" rx="1.63" ry="1.63" style="fill:#39913f"/><rect x="50.89" y="108.57" width="68.48" height="3.29" rx="1.65" ry="1.65" style="fill:#39913f"/><rect x="50.63" y="81.29" width="68.38" height="3.31" rx="1.65" ry="1.65" style="fill:#39913f"/><rect x="116.35" y="54.29" width="3.02" height="57.34" rx="1.51" ry="1.51" style="fill:#39913f"/><rect x="75.33" y="54.29" width="3.01" height="84.59" rx="1.5" ry="1.5" transform="translate(153.66 193.17) rotate(-180)" style="fill:#39913f"/><rect x="50.63" y="81.49" width="3.19" height="57.34" rx="1.59" ry="1.59" transform="translate(104.44 220.32) rotate(-180)" style="fill:#39913f"/><rect x="95.89" y="54.06" width="3.04" height="57.57" rx="1.52" ry="1.52" transform="translate(194.82 165.69) rotate(-180)" style="fill:#39913f"/><rect x="83.55" y="127.99" width="3.01" height="11.07" rx="1.5" ry="1.5" style="fill:#009cde"/><rect x="94.52" y="122.66" width="3.01" height="16.4" rx="1.5" ry="1.5" style="fill:#ce0037"/><rect x="105.49" y="120.38" width="3.01" height="18.69" rx="1.5" ry="1.5" style="fill:#f2a900"/><rect x="116.35" y="115.01" width="3.01" height="24.07" rx="1.5" ry="1.5" style="fill:#2b932b"/><rect x="50.64" y="135.81" width="27.7" height="3.26" rx="1.63" ry="1.63" style="fill:#39913f"/><rect x="75.51" y="67.61" width="43.58" height="3.34" rx="1.67" ry="1.67" style="fill:#39913f"/><rect x="50.95" y="94.98" width="67.84" height="3.26" rx="1.63" ry="1.63" style="fill:#39913f"/><rect x="51.55" y="122.21" width="26.2" height="3.25" rx="1.62" ry="1.62" style="fill:#39913f"/><g style="opacity:0.6000000000000001"><rect x="31.22" y="154.75" width="107.56" height="3.37" rx="1.68" ry="1.68" style="fill:#39913f"/><rect x="74.72" y="94.05" width="124.75" height="3.37" rx="1.68" ry="1.68" transform="translate(41.36 232.83) rotate(-90)" style="fill:#39913f"/><rect x="-40.21" y="83.32" width="146.22" height="3.37" rx="1.68" ry="1.68" transform="translate(-52.1 117.9) rotate(-90)" style="fill:#39913f"/><rect x="31.22" y="11.89" width="86.09" height="3.37" rx="1.68" ry="1.68" style="fill:#39913f"/><rect x="109.55" y="22.62" width="33.66" height="3.37" rx="1.68" ry="1.68" transform="translate(198.55 130.85) rotate(-135)" style="fill:#39913f"/><rect x="113.96" y="33.95" width="24.82" height="3.37" rx="1.68" ry="1.68" style="fill:#39913f"/><rect x="102.92" y="22.92" width="25.43" height="3.37" rx="1.68" ry="1.68" transform="translate(91.03 140.23) rotate(-90)" style="fill:#39913f"/></g></svg>