<?xml version="1.0" encoding="utf-8"?>
<!-- Generator: Adobe Illustrator 23.0.4, SVG Export Plug-In . SVG Version: 6.00 Build 0)  -->
<svg version="1.1" id="Layer_1" xmlns="http://www.w3.org/2000/svg" xmlns:xlink="http://www.w3.org/1999/xlink" x="0px" y="0px"
	 viewBox="0 0 200 100" style="enable-background:new 0 0 200 100;" xml:space="preserve">
<style type="text/css">
	.st0{fill:none;}
	.st1{opacity:0.15;fill:#39913F;}
	.st2{fill:#009CDE;}
	.st3{fill:#CE0037;}
	.st4{fill:#F2A900;}
	.st5{fill:#2B932B;}
	.st6{fill:#39913F;}
	.st7{opacity:0.6;fill:#39913F;enable-background:new    ;}
	.st8{fill:#178943;}
</style>
<g>
	<path id="Clip_19-10_1_" class="st0" d="M193.4,83.4H6.6V79h186.8V83.4z"/>
	<path id="Fill_18-8_1_" class="st1" d="M193.4,81.2c0,1.2-41.8,2.2-93.4,2.2s-93.4-1-93.4-2.2C6.6,80,48.4,79,100,79
		S193.4,80,193.4,81.2"/>
	<path id="Fill_37-4_1_" class="st2" d="M138.7,71.8L138.7,71.8c-0.4,0-0.7-0.3-0.7-0.7v-3.5c0-0.4,0.3-0.7,0.7-0.7
		c0.4,0,0.7,0.3,0.7,0.7v3.5C139.4,71.5,139.1,71.8,138.7,71.8C138.7,71.8,138.7,71.8,138.7,71.8"/>
	<path id="Fill_39-2_1_" class="st3" d="M143.5,71.8L143.5,71.8c-0.4,0-0.7-0.3-0.7-0.7l0,0v-5.8c0-0.4,0.3-0.7,0.7-0.7
		c0.4,0,0.7,0.3,0.7,0.7v5.8C144.1,71.5,143.8,71.8,143.5,71.8"/>
	<path id="Fill_41-3_1_" class="st4" d="M148.2,71.8L148.2,71.8c-0.4,0-0.7-0.3-0.7-0.7l0,0v-6.8c0-0.4,0.3-0.7,0.7-0.7
		c0.4,0,0.7,0.3,0.7,0.7v6.8C148.9,71.5,148.6,71.8,148.2,71.8"/>
	<path id="Fill_43-2_1_" class="st5" d="M153,71.8L153,71.8c-0.4,0-0.7-0.3-0.7-0.7V62c0-0.4,0.3-0.7,0.7-0.7c0.4,0,0.7,0.3,0.7,0.7
		v9.2C153.6,71.6,153.3,71.8,153,71.8"/>
	<g>
		<polygon class="st6" points="126,45 127.9,41.4 129.8,45 132.1,45 129.2,39.9 132,34.9 129.7,34.9 127.9,38.4 126.1,34.9 
			123.8,34.9 126.6,39.9 123.7,45 		"/>
		<path class="st6" d="M134.5,35.6C134.5,35.6,134.5,35.6,134.5,35.6C134.5,35.6,134.5,35.6,134.5,35.6l0,11.1l-10,0
			c-0.4,0-0.7,0.3-0.7,0.7c0,0,0,0,0,0c0,0,0,0,0,0V71c0,0,0,0,0,0.1c0,0,0,0,0,0c0,0.4,0.3,0.7,0.7,0.7h10.6v0
			c0.4,0,0.7-0.3,0.7-0.7c0,0,0,0,0,0c0,0,0,0,0,0c0,0,0,0,0,0V60l17.1,0c0.4,0,0.7-0.3,0.7-0.7c0,0,0,0,0,0c0,0,0,0,0,0V35.6
			c0,0,0,0,0,0c0,0,0,0,0,0c0-0.4-0.3-0.7-0.7-0.7h-17.7C134.8,34.9,134.5,35.2,134.5,35.6z M134.5,70.4h-9.4v-4.5h9.4L134.5,70.4z
			 M134.5,64.5h-9.4V60l9.4,0L134.5,64.5z M134.5,58.6l-9.4,0v-4.5l9.4,0L134.5,58.6z M134.5,52.7l-9.4,0v-4.5l9.4,0L134.5,52.7z
			 M144.7,36.3h7.6v4.5h-7.6V36.3z M144.7,42.2l7.6,0v4.5l-7.6,0V42.2z M144.7,48.2l7.6,0v4.5l-7.6,0V48.2z M144.7,54.1l7.6,0v4.5
			l-7.6,0V54.1z M135.8,36.3h7.6v4.5h-7.6V36.3z M135.8,42.2l7.6,0v4.5l-7.6,0V42.2z M135.8,48.2l7.6,0v4.5l-7.6,0V48.2z
			 M135.8,54.1l7.6,0v4.5l-7.6,0V54.1z"/>
		<path class="st6" d="M162,26.5c0-0.1-0.1-0.3-0.2-0.4l-9.3-9.3c0,0-0.1-0.1-0.1-0.1c-0.1-0.1-0.3-0.1-0.4-0.1h-36
			c-0.4,0-0.7,0.3-0.7,0.7v62.1c0,0.4,0.3,0.7,0.7,0.7h45.3c0.1,0,0.2,0,0.3-0.1c0,0,0,0,0,0l0,0c0.1,0,0.2-0.1,0.2-0.1c0,0,0,0,0,0
			l0,0c0.1-0.1,0.1-0.1,0.1-0.2c0,0,0-0.1,0-0.1c0,0,0-0.1,0-0.1V26.6C162.1,26.6,162.1,26.5,162,26.5z M152.7,19l7.1,7.1h-7.1V19z
			 M160.6,78.7h-43.8V18h34.5v8.9c0,0.4,0.3,0.7,0.7,0.7h8.6V78.7z"/>
	</g>
	<path id="Fill_56-4_1_" class="st7" d="M174.7,80.1h-3.3c-0.3,0-0.5-0.2-0.6-0.4c0-0.1-0.1-0.2-0.1-0.3V42.4c0,0,0,0,0-0.1l1.7-5.2
		c0.1-0.3,0.3-0.4,0.6-0.4c0.1,0,0.1,0,0.2,0c0.2,0.1,0.3,0.2,0.4,0.3v0c0,0,0,0.1,0.1,0.1l1.6,5.1c0,0.1,0,0.1,0,0.2v37
		C175.3,79.8,175.1,80.1,174.7,80.1z M173.1,39.3l-1,3.3v36.3h2.1V42.5L173.1,39.3z"/>
	<g>
		<polygon class="st8" points="45,44.8 45,44.7 45,42.5 45,42.5 42.8,44.7 42.8,44.7 42.8,44.8 		"/>
		<path class="st8" d="M105.9,74.6c0-0.6-0.5-1.2-1.2-1.2c0,0,0,0,0,0l-6.2,0V38.6c0-3.3-2.7-6.1-6.1-6.1h-55
			c-3.3,0-6.1,2.7-6.1,6.1v34.9l-6.2,0c0,0,0,0,0,0c-0.6,0-1.2,0.5-1.2,1.2c0,0.1,0,0.1,0,0.2c0,1,0.3,2.7,1.6,4.1
			c1.2,1.2,3.1,1.9,5.5,1.9l67.8,0c2.4,0,4.2-0.6,5.5-1.9c1.3-1.3,1.6-3.1,1.6-4.1C105.9,74.7,105.9,74.7,105.9,74.6z M93.2,73.5
			l-18.8,0c-0.6,0-1,0.4-1.1,0.9c-0.1,0.6-0.6,1-1.2,1H57.9c-0.4,0-0.8-0.2-1-0.5c-0.1-0.1-0.2-0.3-0.2-0.5c0,0,0-0.1,0-0.1
			c-0.2-0.5-0.6-0.8-1.1-0.8l-18.8,0V37.4h56.5V73.5z M103.4,78c-1,1-2.5,1.5-4.6,1.5l-67.8,0c-2.1,0-3.6-0.5-4.6-1.5
			c-1-1.1-1.2-2.5-1.2-3.3l30.2,0c0.3,1.1,1.3,1.9,2.5,1.9H72c1.2,0,2.2-0.8,2.5-1.9l30.2-0.1C104.6,75.5,104.4,76.9,103.4,78z
			 M32.7,38.6c0-2.6,2.2-4.8,4.8-4.8h55c2.6,0,4.8,2.2,4.8,4.8v34.9l-2.8,0V36.2h0h-59h0v37.3l-2.8,0V38.6z"/>
		<path class="st8" d="M45.5,69.6L45.5,69.6l0.4,0.1v-0.1v-2.7h7.9v2.6v0.1h0.4v-0.1v-2.6H64v2.7v0.1h0.4v-0.1v-2.7h9.9v2.6v0.1h0.4
			v-0.1v-2.6h7.9v2.7v0.1h0.4v-0.1v-2.7h4.6v-0.1v-0.3v-0.1h-4.6v-4.7h4.6v-0.1v-0.3v-0.1h-4.6v-5.6h4.6v-0.1v-0.3v-0.1h-4.6v-4.6
			h4.6v-0.1v-0.3v-0.1h-4.6v-4.6h4.6v-0.1v-0.3v-0.1h-4.6V41v-0.1h-0.4V41v4.3h-7.9V41v-0.1h-0.4V41v4.3h-9.9V41v-0.1H64V41v4.3
			h-9.9V41v-0.1h-0.4V41v4.3h-7.9V41v-0.1h-0.4V41v4.3h-4.6v0.1v0.3v0.1h4.6v4.6h-4.6v0.1v0.3v0.1h4.6v4.6h-4.6v0.1v0.3v0.1h4.6v5.6
			h-4.6v0.1v0.3v0.1h4.6v4.7h-4.6v0.1v0.3v0.1h4.6V69.6z M64.4,66.5v-4.7h9.9v4.7H64.4z M64.4,61.3v-5.6h9.9v5.6H64.4z M64.4,55.3
			v-4.6h9.9v4.6H64.4z M64.4,50.3v-4.6h9.9v4.6H64.4z M64,45.7v4.6h-9.9v-4.6H64z M64,50.7v4.6h-9.9v-4.6H64z M64,55.7v5.6h-9.9
			v-5.6H64z M64,61.8v4.7h-9.9v-4.7H64z M82.5,66.5h-7.9v-4.7h7.9V66.5z M82.5,61.3h-7.9v-5.6h7.9V61.3z M82.5,55.3h-7.9v-4.6h7.9
			V55.3z M82.5,50.3h-7.9v-4.6h7.9V50.3z M45.9,45.7h7.9v4.6h-7.9V45.7z M45.9,50.7h7.9v4.6h-7.9V50.7z M45.9,55.7h7.9v5.6h-7.9
			V55.7z M45.9,61.8h7.9v4.7h-7.9V61.8z"/>
	</g>
</g>
</svg>
