<?xml version="1.0" encoding="utf-8"?>
<!-- Generator: Adobe Illustrator 23.0.4, SVG Export Plug-In . SVG Version: 6.00 Build 0)  -->
<svg version="1.1" id="Layer_1" xmlns="http://www.w3.org/2000/svg" xmlns:xlink="http://www.w3.org/1999/xlink" x="0px" y="0px"
	 viewBox="0 0 200 100" style="enable-background:new 0 0 200 100;" xml:space="preserve">
<style type="text/css">
	.st0{fill:none;}
	.st1{opacity:0.15;fill:#406098;}
	.st2{fill:#406098;}
	.st3{clip-path:url(#SVGID_2_);fill:#406098;}
	.st4{opacity:0.6;fill:#406098;enable-background:new    ;}
</style>
<g>
	<path id="Clip_16-4_1_" class="st0" d="M115.3,16.6h46.8v63.6h-46.8V16.6z"/>
	<path id="Clip_19-8_1_" class="st0" d="M193.4,83.4H6.6V79h186.8V83.4z"/>
	<path id="Fill_18-4_1_" class="st1" d="M193.4,81.2c0,1.2-41.8,2.2-93.4,2.2s-93.4-1-93.4-2.2C6.6,80,48.4,79,100,79
		S193.4,80,193.4,81.2"/>
	<path class="st2" d="M105.9,74.6c0-0.6-0.5-1.2-1.2-1.2c0,0,0,0,0,0l-6.2,0V38.6c0-3.3-2.7-6.1-6.1-6.1h-55c-3.3,0-6.1,2.7-6.1,6.1
		v34.9l-6.2,0c0,0,0,0,0,0c-0.6,0-1.2,0.5-1.2,1.2c0,0.1,0,0.1,0,0.2c0,1,0.3,2.7,1.6,4.1c1.2,1.2,3.1,1.9,5.5,1.9l67.8,0
		c2.4,0,4.2-0.6,5.5-1.9c1.3-1.3,1.6-3.1,1.6-4.1C105.9,74.7,105.9,74.7,105.9,74.6z M93.2,73.5l-18.8,0c-0.6,0-1,0.4-1.1,0.9
		c-0.1,0.6-0.6,1-1.2,1c0,0,0,0,0,0H57.9c-0.6,0-1.1-0.4-1.2-1c-0.1-0.5-0.6-0.9-1.1-0.9l-18.8,0V37.4h56.5V73.5z M103.4,78
		c-1,1-2.5,1.5-4.6,1.5l-67.8,0c-2.1,0-3.6-0.5-4.6-1.5c-1-1.1-1.2-2.5-1.2-3.3l30.2,0c0.3,1.1,1.3,1.9,2.5,1.9H72c0,0,0,0,0,0
		c1.2,0,2.2-0.8,2.5-1.9l30.2-0.1C104.6,75.5,104.4,76.9,103.4,78z M32.7,38.6c0-2.6,2.2-4.8,4.8-4.8h55c2.6,0,4.8,2.2,4.8,4.8v34.9
		l-2.8,0V36.2h0h-59h0v37.3l-2.8,0V38.6z"/>
	<path id="Clip_35-2_1_" class="st0" d="M162.1,16.6h-46.8v63.6h46.8V16.6z"/>
	<g>
		<defs>
			<rect id="SVGID_1_" x="115.3" y="16.6" width="46.8" height="63.6"/>
		</defs>
		<clipPath id="SVGID_2_">
			<use xlink:href="#SVGID_1_"  style="overflow:visible;"/>
		</clipPath>
		<path id="Fill_34-2_1_" class="st3" d="M161.3,80.1H116c-0.4,0-0.7-0.3-0.7-0.7V17.3c0-0.4,0.3-0.7,0.7-0.7h36
			c0.1,0,0.3,0,0.4,0.1c0,0,0.1,0.1,0.1,0.1l9.3,9.3c0.1,0.1,0.2,0.3,0.2,0.5v52.8c0,0.1,0,0.2-0.1,0.3c0,0,0,0.1-0.1,0.1
			c0,0-0.1,0.1-0.1,0.1c-0.1,0.1-0.1,0.1-0.2,0.2l0,0l0,0C161.5,80.1,161.4,80.1,161.3,80.1z M116.8,18v60.6h43.8v-51H152
			c-0.4,0-0.7-0.3-0.7-0.7V18H116.8z M152.7,19v7.1h7.1L152.7,19z"/>
	</g>
	<path id="Fill_37-2_1_" class="st4" d="M174.7,80.1h-3.3c-0.3,0-0.5-0.2-0.6-0.4c0-0.1-0.1-0.2-0.1-0.3V42.4c0,0,0,0,0-0.1l1.7-5.2
		c0.1-0.3,0.3-0.4,0.6-0.4c0.1,0,0.1,0,0.2,0c0.2,0.1,0.3,0.2,0.4,0.3c0,0,0,0.1,0.1,0.1l1.6,5.1c0,0.1,0,0.1,0,0.2v37
		C175.4,79.8,175.1,80.1,174.7,80.1z M173.1,39.3l-1,3.3v36.3h2.1V42.5L173.1,39.3z"/>
</g>
</svg>
