<?xml version="1.0" encoding="utf-8"?>
<!-- Generator: Adobe Illustrator 23.0.4, SVG Export Plug-In . SVG Version: 6.00 Build 0)  -->
<svg version="1.1" id="Layer_1" xmlns="http://www.w3.org/2000/svg" xmlns:xlink="http://www.w3.org/1999/xlink" x="0px" y="0px"
	 viewBox="0 0 81 100" style="enable-background:new 0 0 81 100;" xml:space="preserve">
<style type="text/css">
	.st0{fill:#999999;}
</style>
<g>
	<path class="st0" d="M34.9,54.4c-2.9,1.8-3.5,2.8-3.5,3.7l0,3.1c0,0.8,0.7,1.4,1.4,1.4c0,0,0,0,0,0H48c0.9,0,1.7-0.7,1.7-1.7v-2.8
		c0-0.9-0.6-1.9-3.5-3.7c-0.5-0.3-1-0.6-1.5-0.9c0,0,0,0,0-0.1c0.9-1.4,1.4-3,1.4-4.7c0-1.7-0.5-3.2-1.5-4.3c-1-1.1-2.4-1.8-3.9-1.8
		c-3.1,0-5.4,2.5-5.4,6c0,1.6,0.5,3.2,1.3,4.6c0,0,0,0,0,0.1C36,53.8,35.4,54.1,34.9,54.4z M37.9,52.6c-0.7-1.1-1-2.4-1.1-3.7
		c0-2.6,1.6-4.4,3.8-4.4c1.1,0,2,0.4,2.7,1.2c0.7,0.8,1.1,2,1.1,3.2c0,1.4-0.4,2.7-1.1,3.8c0,0,0,0.1-0.1,0.1
		c-0.4,0.8-0.1,1.8,0.6,2.2c0.5,0.3,1,0.5,1.4,0.8c2.5,1.6,2.7,2.2,2.7,2.3v2.8c0,0,0,0.1-0.1,0.1H33v-2.8c0-0.1,0.1-0.7,2.8-2.4
		c0.5-0.3,1-0.6,1.6-0.9c0,0,0.1,0,0.1,0c0.4-0.2,0.6-0.6,0.7-1C38.2,53.4,38.1,53,37.9,52.6z"/>
	<path class="st0" d="M66.6,33H35.1v-4.1c0-0.5-0.4-0.9-0.9-0.9H14.4c-0.5,0-0.9,0.4-0.9,0.9v42.3c0,0.5,0.4,0.9,0.9,0.9h52.3
		c0.5,0,0.9-0.4,0.9-0.9V33.8C67.5,33.3,67.1,33,66.6,33z M65.8,70.3H15.2V29.7h18.2v4.1c0,0.5,0.4,0.9,0.9,0.9h31.5V70.3z"/>
</g>
</svg>
