<?xml version="1.0" encoding="utf-8"?>
<!-- Generator: Adobe Illustrator 23.0.4, SVG Export Plug-In . SVG Version: 6.00 Build 0)  -->
<svg version="1.1" id="Layer_1" xmlns="http://www.w3.org/2000/svg" xmlns:xlink="http://www.w3.org/1999/xlink" x="0px" y="0px" viewBox="13.5 28 54.00000762939453 44" style="enable-background:new 0 0 81 100;" xml:space="preserve">
<style type="text/css">
	.st0{fill:#333333;}
</style>
<g>
	<path class="st0" d="M67.5,29.3c0-0.7-0.6-1.3-1.3-1.3h0H14.8h0c-0.7,0-1.3,0.6-1.3,1.3v28.8h0v12.6c0,0.7,0.6,1.3,1.3,1.3h0h51.4
		h0c0.1,0,0.1,0,0.1,0c0.1,0,0.3,0,0.4-0.1c0,0,0,0,0.1,0c0.1-0.1,0.3-0.1,0.4-0.2c0,0,0,0,0-0.1c0.2-0.2,0.3-0.5,0.3-0.9V29.3z
		 M15.2,29.7h50.6V63L55.4,50.7c-0.2-0.3-0.5-0.5-0.9-0.5c-0.3,0-0.7,0.1-1,0.3c-0.1,0.1-0.2,0.1-0.2,0.2l-4.9,5.7L32.6,37.7
		c-0.4-0.6-1.3-0.7-1.8-0.2c-0.1,0.1-0.2,0.1-0.2,0.2l-15.3,18V29.7z M15.2,70.3V58.4l16.3-19.2l15.9,18.8c0.1,0.1,0.1,0.2,0.2,0.2
		c0.3,0.2,0.6,0.3,1,0.3c0.3,0,0.7-0.2,0.9-0.5l4.9-5.7l11.5,13.5v4.6H15.2z"></path>
	<path class="st0" d="M54.1,44.6c2.9,0,5.3-2.4,5.3-5.3c0-2.9-2.4-5.3-5.3-5.3c-2.9,0-5.3,2.4-5.3,5.3
		C48.8,42.3,51.2,44.6,54.1,44.6z M54.1,35.8c1.9,0,3.5,1.6,3.5,3.5c0,1.9-1.6,3.5-3.5,3.5c-1.9,0-3.5-1.6-3.5-3.5
		C50.5,37.4,52.1,35.8,54.1,35.8z"></path>
</g>
</svg>
