<?xml version="1.0" encoding="utf-8"?>
<!-- Generator: Adobe Illustrator 23.0.4, SVG Export Plug-In . SVG Version: 6.00 Build 0)  -->
<svg version="1.1" id="Layer_1" xmlns="http://www.w3.org/2000/svg" xmlns:xlink="http://www.w3.org/1999/xlink" x="0px" y="0px"
	 viewBox="0 0 81 100" style="enable-background:new 0 0 81 100;" xml:space="preserve">
<style type="text/css">
	.st0{fill:#E24585;}
</style>
<g>
	<path class="st0" d="M38.8,75.5H24.1c-0.4,0-0.8,0.4-0.8,0.8c0,0.5,0.3,0.8,0.8,0.8h14.7c0.4,0,0.8-0.4,0.8-0.8
		C39.6,75.9,39.2,75.5,38.8,75.5z"/>
	<path class="st0" d="M56.9,61.8H43.3c-0.5,0-0.8,0.4-0.8,0.8v13.7c0,0.5,0.4,0.8,0.8,0.8c0,0,0,0,0,0h13.6c0.5,0,0.8-0.4,0.8-0.8
		c0,0,0,0,0,0V62.7C57.8,62.2,57.4,61.8,56.9,61.8z"/>
	<rect x="23.2" y="34.5" class="st0" width="2.3" height="11.6"/>
	<path class="st0" d="M28.4,45c0.5,0.7,1.4,1.2,2.3,1.1c0.8,0,1.6-0.4,2.1-1l0.1,1h2v0V34.5h-2.2v4.1c-0.5-0.6-1.2-0.9-2-0.9
		c-0.9,0-1.8,0.4-2.4,1.1c-0.6,0.9-0.9,2-0.9,3C27.5,42.9,27.8,44.1,28.4,45z M30.2,40c0.2-0.4,0.7-0.7,1.2-0.6
		c0.6,0,1.2,0.3,1.4,0.9v3.2c-0.3,0.6-0.8,0.9-1.4,0.9c-0.5,0-0.9-0.2-1.2-0.6c-0.3-0.5-0.4-1.2-0.4-1.8
		C29.7,41.3,29.9,40.6,30.2,40z"/>
	<path class="st0" d="M38.8,68.7H24.1c0,0,0,0,0,0c-0.5,0-0.8,0.4-0.8,0.8c0,0.5,0.4,0.8,0.8,0.8h14.7c0.4,0,0.8-0.4,0.8-0.8
		C39.6,69.1,39.2,68.7,38.8,68.7z"/>
	<path class="st0" d="M38.8,61.8H24.1c-0.4,0-0.8,0.4-0.8,0.8c0,0.5,0.3,0.8,0.8,0.8h14.7c0.4,0,0.8-0.4,0.8-0.8
		C39.6,62.2,39.2,61.9,38.8,61.8z"/>
	<path class="st0" d="M56.9,55H24.1c0,0,0,0,0,0c-0.5,0-0.8,0.4-0.8,0.8c0,0.5,0.4,0.8,0.8,0.8h32.8c0.4,0,0.8-0.4,0.8-0.8
		C57.7,55.4,57.4,55,56.9,55z"/>
	<path class="st0" d="M24.1,49.8h32.8c0.5,0,0.8-0.4,0.8-0.8s-0.4-0.8-0.8-0.8H24.1c-0.5,0-0.8,0.4-0.8,0.8S23.6,49.8,24.1,49.8z"/>
	<path class="st0" d="M56.9,41.3H38.7c-0.5,0-0.8,0.4-0.8,0.8c0,0.5,0.4,0.8,0.8,0.8h18.3c0.5,0,0.8-0.4,0.8-0.8
		C57.8,41.7,57.4,41.3,56.9,41.3z"/>
	<path class="st0" d="M38.6,36.1h18.3c0.5,0,0.8-0.4,0.8-0.8c0-0.5-0.4-0.8-0.8-0.8H38.6c-0.5,0-0.8,0.4-0.8,0.8
		C37.8,35.7,38.2,36.1,38.6,36.1z"/>
	<path class="st0" d="M67.5,24.9c0-0.1,0-0.2-0.1-0.4c0-0.1-0.1-0.2-0.2-0.3L56.6,13.6c0,0-0.1-0.1-0.1-0.1
		c-0.2-0.2-0.4-0.3-0.6-0.3c-0.1,0-0.1,0-0.2,0H14.5c-0.1,0-0.1,0-0.2,0c-0.2,0-0.4,0.1-0.6,0.2c0,0,0,0,0,0c0,0,0,0,0,0
		c-0.1,0.1-0.2,0.3-0.2,0.6c0,0.1,0,0.1,0,0.2c0,0,0,71.5,0,71.6c0,0.2,0.1,0.4,0.3,0.6c0.2,0.2,0.4,0.3,0.6,0.2
		c0.1,0,52.3,0,52.3,0c0,0,0,0,0,0c0.5,0,0.8-0.4,0.8-0.9C67.5,85.8,67.5,24.9,67.5,24.9z M15.2,15H55v10.2c0,0,0,0,0,0
		c0,0.5,0.4,0.8,0.9,0.8c0.1,0,0.1,0,0.2,0h9.7v59H15.2V15z M56.7,16.2l8.2,8.2h-8.2V16.2z"/>
</g>
</svg>
