<?xml version="1.0" encoding="utf-8"?>
<!-- Generator: Adobe Illustrator 23.0.4, SVG Export Plug-In . SVG Version: 6.00 Build 0)  -->
<svg version="1.1" id="Layer_1" xmlns="http://www.w3.org/2000/svg" xmlns:xlink="http://www.w3.org/1999/xlink" x="0px" y="0px"
	 viewBox="0 0 200 100" style="enable-background:new 0 0 200 100;" xml:space="preserve">
<style type="text/css">
	.st0{opacity:0.15;fill:#E24585;}
	.st1{fill:#E24585;}
	.st2{opacity:0.6;fill:#E24585;enable-background:new    ;}
</style>
<g>
	<path id="Fill_17_1_" class="st0" d="M100,83.4c-51.6,0-93.4-1-93.4-2.2C6.6,80,48.4,79,100,79s93.4,1,93.4,2.2
		C193.4,82.4,151.6,83.4,100,83.4z"/>
	<g>
		<path class="st1" d="M100.7,80.6c0.2,0,0.4-0.1,0.6-0.1c0.2,0,0.3-0.1,0.5-0.1c0.1,0,0.1,0,0.2-0.1c0.2-0.1,0.4-0.2,0.6-0.2
			c0,0,0,0,0.1,0c0.1-0.1,0.2-0.1,0.3-0.2c0.1,0,0.2-0.1,0.3-0.1c0.1,0,0.1-0.1,0.2-0.1c0.1-0.1,0.3-0.2,0.4-0.3c0,0,0,0,0,0
			c0.2-0.1,0.3-0.3,0.4-0.4c0.2-0.2,0.3-0.4,0.5-0.6c1-1.3,1.1-2.8,1.1-3.7c0-0.6-0.5-1.2-1.2-1.2c0,0,0,0,0,0c0,0,0,0,0,0l-6.2,0
			V38.6c0-1.4-0.5-2.8-1.4-3.8c0,0,0-0.1-0.1-0.1c-0.1-0.1-0.2-0.2-0.3-0.4c0,0,0,0,0,0c0,0,0,0,0,0c-1.1-1.1-2.7-1.8-4.3-1.8h-55
			c-1.6,0-3.1,0.6-4.3,1.8c-1.1,1.1-1.8,2.7-1.8,4.3v34.9l-6.2,0c0,0,0,0,0,0c-0.2,0-0.4,0.1-0.6,0.2c-0.2,0.1-0.4,0.3-0.5,0.6
			c-0.1,0.1-0.1,0.3-0.1,0.4c0,1,0.2,2.8,1.6,4.3c1.2,1.2,3.1,1.9,5.5,1.9h63.1l4.6,0c0.4,0,0.9,0,1.3-0.1c0.1,0,0.3,0,0.4,0
			C100.6,80.6,100.6,80.6,100.7,80.6z M31.1,79.5c-2.1,0-3.6-0.5-4.6-1.5c-1-1.1-1.2-2.5-1.2-3.3l30.2,0c0.3,1.1,1.3,1.9,2.5,1.9h0
			H72h0c1.2,0,2.2-0.8,2.5-1.9l30.2-0.1c0,0.8-0.2,2.2-1.2,3.3c-1,1-2.5,1.5-4.6,1.5h0L31.1,79.5z M56.7,74.5
			c-0.1-0.5-0.6-0.9-1.1-0.9l-18.8,0V37.5h56.5v36l-18.8,0c-0.6,0-1,0.4-1.1,0.9c-0.1,0.6-0.6,1-1.2,1H57.9
			C57.3,75.4,56.8,75,56.7,74.5z M97.2,38.6v34.9l-2.8,0V36.2h0v0h-59v37.3l-2.8,0V38.6c0-1.3,0.5-2.5,1.4-3.4
			c0.9-0.9,2.1-1.4,3.4-1.4h55c1.3,0,2.5,0.5,3.4,1.4c0.1,0.1,0.2,0.2,0.3,0.4C96.8,36.4,97.2,37.5,97.2,38.6z"/>
		<rect x="40.9" y="49.6" class="st1" width="7.8" height="8.1"/>
		<rect x="66.6" y="61.4" class="st1" width="20.9" height="8.1"/>
		<polygon class="st1" points="42.7,43 41.5,43 41.5,40.8 40.9,40.8 40.9,43.4 42.7,43.4 		"/>
		<path class="st1" d="M43.1,43.2c0.2,0.2,0.4,0.3,0.7,0.2c0.3,0,0.5-0.1,0.7-0.3c0.2-0.2,0.3-0.5,0.3-0.7v0c0-0.3-0.1-0.5-0.3-0.7
			c-0.2-0.2-0.5-0.3-0.7-0.3c-0.2,0-0.4,0-0.5,0.1c-0.1,0.1-0.3,0.2-0.3,0.3c-0.1,0.2-0.1,0.3-0.1,0.5l0,0.1
			C42.9,42.8,43,43.1,43.1,43.2z M43.5,42.4c0-0.3,0.1-0.4,0.3-0.4c0.2,0,0.4,0.2,0.3,0.5v0.1c0,0.3-0.1,0.5-0.3,0.5
			c-0.1,0-0.2,0-0.3-0.1c-0.1-0.1-0.1-0.3-0.1-0.4L43.5,42.4z"/>
		<path class="st1" d="M45.7,42.2c0.1-0.1,0.2-0.2,0.4-0.2l0.2,0l0-0.6c-0.1,0-0.1,0-0.2,0c-0.2,0-0.4,0.1-0.4,0.3l0-0.2h-0.6v1.9
			h0.6V42.2z"/>
		<path class="st1" d="M47.5,43.5c0.2,0,0.3,0,0.5-0.1c0.1-0.1,0.2-0.1,0.3-0.2L48,42.8c-0.1,0.1-0.3,0.2-0.5,0.2
			c-0.1,0-0.2,0-0.3-0.1c-0.1-0.1-0.1-0.2-0.1-0.3h1.3v-0.2c0-0.3-0.1-0.5-0.2-0.7c-0.2-0.2-0.4-0.3-0.7-0.3c-0.2,0-0.4,0-0.5,0.1
			c-0.1,0.1-0.3,0.2-0.3,0.4c-0.1,0.2-0.1,0.3-0.1,0.5v0.1c0,0.3,0.1,0.5,0.3,0.7C47,43.4,47.2,43.5,47.5,43.5z M47.4,41.9
			c0.1,0,0.2,0,0.2,0.1c0.1,0.1,0.1,0.1,0.1,0.2v0h-0.6C47.2,42.1,47.3,41.9,47.4,41.9z"/>
		<path class="st1" d="M49.3,42.1c0.1-0.1,0.2-0.2,0.3-0.2c0.1,0,0.1,0,0.2,0.1c0,0.1,0.1,0.1,0.1,0.2v1.2h0.6v-1.3l0,0
			c0.1-0.1,0.2-0.2,0.3-0.2c0.1,0,0.1,0,0.2,0.1c0,0.1,0.1,0.1,0.1,0.2v1.2h0.6v-1.3c0-0.5-0.2-0.7-0.6-0.7c-0.2,0-0.5,0.1-0.6,0.3
			c-0.1-0.2-0.3-0.3-0.5-0.3c-0.2,0-0.4,0.1-0.6,0.3l0-0.2h-0.6v1.9h0.6V42.1z"/>
		<rect x="40.9" y="45.8" class="st1" width="46.7" height="0.4"/>
		<rect x="50.6" y="49.4" class="st1" width="36.9" height="0.4"/>
		<rect x="50.6" y="53.4" class="st1" width="36.9" height="0.4"/>
		<rect x="50.6" y="57.5" class="st1" width="36.9" height="0.4"/>
		<rect x="40.9" y="61.3" class="st1" width="24.4" height="0.4"/>
		<rect x="40.9" y="65.3" class="st1" width="24.4" height="0.4"/>
		<rect x="40.9" y="69.4" class="st1" width="24.4" height="0.4"/>
	</g>
	<g>
		<path class="st1" d="M137.2,70.5h-12.7c-0.4,0-0.7,0.3-0.7,0.7c0,0.4,0.3,0.7,0.7,0.7h12.7c0.4,0,0.7-0.3,0.7-0.7
			C137.9,70.8,137.6,70.5,137.2,70.5z"/>
		<path class="st1" d="M152.9,58.6C152.9,58.6,152.9,58.6,152.9,58.6h-11.8c-0.4,0-0.7,0.3-0.7,0.7v11.8c0,0.4,0.3,0.7,0.7,0.7h11.8
			c0.4,0,0.7-0.3,0.7-0.7c0,0,0,0,0,0V59.3C153.6,58.9,153.3,58.6,152.9,58.6z"/>
		<rect x="123.7" y="34.9" class="st1" width="2" height="10.1"/>
		<path class="st1" d="M130.3,45c0.7,0,1.4-0.3,1.8-0.9l0.1,0.9h1.7l0-10.1H132v3.5c-0.4-0.5-1.1-0.8-1.7-0.8c-0.8,0-1.6,0.3-2.1,1
			c-0.5,0.7-0.8,1.5-0.8,2.6c0,1.2,0.3,2.1,0.8,2.7C128.7,44.7,129.5,45,130.3,45z M129.7,39.7c0.2-0.4,0.6-0.6,1-0.6
			c0.5,0,1,0.3,1.2,0.7v2.8c-0.2,0.5-0.7,0.8-1.2,0.7c-0.4,0-0.8-0.2-1-0.5c-0.3-0.5-0.4-1-0.4-1.5
			C129.3,40.8,129.5,40.3,129.7,39.7z"/>
		<path class="st1" d="M137.2,64.6h-12.7c0,0,0,0,0,0c-0.4,0-0.7,0.3-0.7,0.7c0,0.4,0.3,0.7,0.7,0.7h12.7c0.4,0,0.7-0.3,0.7-0.7
			C137.9,64.9,137.6,64.6,137.2,64.6z"/>
		<path class="st1" d="M124.5,58.6c-0.4,0-0.7,0.3-0.7,0.7c0,0.4,0.3,0.7,0.7,0.7h12.7c0.4,0,0.7-0.3,0.7-0.7c0-0.4-0.3-0.7-0.7-0.7
			H124.5z"/>
		<path class="st1" d="M153.6,53.4c0-0.4-0.3-0.7-0.7-0.7h-28.4c-0.4,0-0.7,0.3-0.7,0.7c0,0.4,0.3,0.7,0.7,0.7h28.4
			C153.3,54.1,153.6,53.8,153.6,53.4z"/>
		<path class="st1" d="M124.5,48.2h28.4c0.4,0,0.7-0.3,0.7-0.7c0-0.4-0.3-0.7-0.7-0.7h-28.4c-0.4,0-0.7,0.3-0.7,0.7
			C123.7,47.9,124.1,48.2,124.5,48.2z"/>
		<path class="st1" d="M152.9,40.8h-15.8c-0.4,0-0.7,0.3-0.7,0.7s0.3,0.7,0.7,0.7h15.8c0.4,0,0.7-0.3,0.7-0.7S153.3,40.8,152.9,40.8
			z"/>
		<path class="st1" d="M137.1,36.3h15.8c0.4,0,0.7-0.3,0.7-0.7s-0.3-0.7-0.7-0.7h-15.8c-0.4,0-0.7,0.3-0.7,0.7
			S136.7,36.3,137.1,36.3z"/>
	</g>
	<g>
		<path class="st2" d="M162,26.5L162,26.5C162,26.5,162,26.5,162,26.5C162,26.5,162,26.5,162,26.5C162,26.5,162,26.5,162,26.5
			c0-0.1,0-0.1-0.1-0.2c0,0,0,0,0,0c0-0.1-0.1-0.1-0.1-0.2l-9.3-9.3c0,0-0.1-0.1-0.1-0.1c-0.1-0.1-0.3-0.1-0.4-0.1h-36
			c-0.4,0-0.7,0.3-0.7,0.7v62.1c0,0.4,0.3,0.7,0.7,0.7h45.3c0.1,0,0.1,0,0.2,0c0,0,0,0,0,0c0,0,0.1,0,0.1,0c0,0,0,0,0,0c0,0,0,0,0,0
			c0,0,0,0,0,0c0.1-0.1,0.2-0.1,0.3-0.2c0,0,0-0.1,0.1-0.1c0,0,0-0.1,0-0.1c0,0,0,0,0,0c0,0,0,0,0,0c0,0,0-0.1,0-0.1v0V26.9v-0.3v0
			c0,0,0,0,0,0C162.1,26.6,162.1,26.5,162,26.5z M159.8,26.2h-7.1v-7.1L159.8,26.2z M116.8,18h34.5v8.9c0,0.4,0.3,0.7,0.7,0.7h8.6
			v51h-43.8V18z"/>
		<path class="st2" d="M175.3,42.3l-1.6-5.1c0,0,0-0.1-0.1-0.1c-0.1-0.2-0.2-0.3-0.4-0.3c-0.1,0-0.1,0-0.2,0c-0.3,0-0.5,0.2-0.6,0.4
			l-1.7,5.2c0,0,0,0,0,0.1v37.1c0,0.1,0,0.2,0.1,0.3c0.1,0.3,0.3,0.4,0.6,0.4h3.3c0.3,0,0.6-0.3,0.6-0.6v-37
			C175.4,42.4,175.3,42.3,175.3,42.3z M174.1,78.9H172V42.6l1-3.3l1,3.2V78.9z"/>
	</g>
</g>
</svg>
