<?xml version="1.0" encoding="utf-8"?>
<!-- Generator: Adobe Illustrator 24.2.1, SVG Export Plug-In . SVG Version: 6.00 Build 0)  -->
<svg version="1.1" id="Layer_1" xmlns="http://www.w3.org/2000/svg" xmlns:xlink="http://www.w3.org/1999/xlink" x="0px" y="0px"
	 viewBox="0 0 479 122" style="enable-background:new 0 0 479 122;" xml:space="preserve">
<style type="text/css">
	.st0{fill:url(#SVGID_1_);}
	.st1{fill:url(#SVGID_2_);}
</style>
<linearGradient id="SVGID_1_" gradientUnits="userSpaceOnUse" x1="20.2491" y1="10.1509" x2="95.7383" y2="85.6402" gradientTransform="matrix(1 0 0 -1 0 122)">
	<stop  offset="1.866831e-02" style="stop-color:#FFCD00"/>
	<stop  offset="0.2933" style="stop-color:#FFCA01"/>
	<stop  offset="0.4584" style="stop-color:#FEC203"/>
	<stop  offset="0.5947" style="stop-color:#FCB407"/>
	<stop  offset="0.7152" style="stop-color:#FA9F0C"/>
	<stop  offset="0.8253" style="stop-color:#F78513"/>
	<stop  offset="0.9263" style="stop-color:#F3651B"/>
	<stop  offset="1" style="stop-color:#F04923"/>
</linearGradient>
<path class="st0" d="M89.7,35.3v40.1c0,5-3.1,9.4-7.8,11.1c0,0-34.8,12.8-34.9,12.8c-15.6,5.8-16.8,15.5-16.8,15.5L8.5,100.1
	c0,0,3.9-11,21.7-17.3l12.6-4.6l17.4-6.4c4.7-1.7,7.8-6.2,7.8-11.2V26.2l4.1-1.5l1.6-0.6c3.6-1.3,7.2-0.8,10.2,0.9
	C87.3,27.1,89.7,30.8,89.7,35.3z"/>
<linearGradient id="SVGID_2_" gradientUnits="userSpaceOnUse" x1="-0.2241" y1="30.6241" x2="74.9759" y2="105.8241" gradientTransform="matrix(1 0 0 -1 0 122)">
	<stop  offset="0" style="stop-color:#0046C8"/>
	<stop  offset="1.416844e-02" style="stop-color:#0048C8"/>
	<stop  offset="0.3466" style="stop-color:#007FC8"/>
	<stop  offset="0.6334" style="stop-color:#00A7C8"/>
	<stop  offset="0.8607" style="stop-color:#00BFC8"/>
	<stop  offset="1" style="stop-color:#00C8C8"/>
</linearGradient>
<path class="st1" d="M83.9,25.1L83.9,25.1c-3-1.7-6.6-2.2-10.2-0.9l-1.6,0.6L68,26.2L38,37.3c-4.7,1.7-7.8,6.2-7.8,11.1v66.4
	L8.5,100.1V33.7c0-5,3.1-9.4,7.8-11.1L52,9.4c3.9-1.5,8-0.7,11,1.5L83.9,25.1z"/>
<g>
	<path d="M111.4,77.4h7.8v-16h10.1c9.8,0,14-7.1,14-14.3c0-7.1-4.2-14.3-14-14.3h-17.9V77.4z M119.3,39.9h9.9c4.5,0,6.3,3.8,6.3,7.2
		c0,3.6-1.9,7.2-6.5,7.2h-9.7V39.9z"/>
	<path d="M164.9,46.5c-3,0-7.8,1.6-9.3,5.2v-19h-7.5v44.6h7.5V61.6c0-5.8,4.2-7.7,7.7-7.7c3.3,0,6.2,2.5,6.2,7.2v16.2h7.5V60.5
		C177,51.7,172.6,46.5,164.9,46.5z"/>
	<path d="M198.2,46.5c-8.6,0-16,6.1-16,15.7s7.4,15.8,16,15.8s16-6.3,16-15.8S206.7,46.5,198.2,46.5z M198.2,71.1
		c-4.6,0-8.4-3.6-8.4-8.9c0-5.2,3.8-8.7,8.4-8.7s8.5,3.5,8.5,8.7C206.6,67.5,202.8,71.1,198.2,71.1z"/>
	<polygon points="229.5,36.1 222.1,36.1 222.1,47.2 216.7,47.2 216.7,53.2 222.1,53.2 222.1,77.4 229.5,77.4 229.5,53.2 235.9,53.2 
		235.9,47.2 229.5,47.2 	"/>
	<path d="M293.4,51.8l-5.3-1.4c-5.1-1.3-5.5-3.9-5.5-5.2c0-3.5,3.2-5.8,6.9-5.8c4.1,0,6.9,2.7,6.9,6.3h7.8c0-8.3-6.4-13.4-14.5-13.4
		c-8.2,0-15.1,5.1-15.1,13c0,3.9,1.7,9.6,11.2,12.1l5.5,1.6c3.7,1,6.4,2.8,6.4,6c0,3.5-2.9,6.1-7.4,6.1c-4.9,0-8.2-3.2-8.2-6.6h-7.8
		c0,7.5,6.4,13.6,15.8,13.6c8.7,0,15.4-5.3,15.4-13.5C305.7,57.5,300.3,53.7,293.4,51.8z"/>
	<path d="M311.2,77.4h7.5V61.6c0-5.8,4.2-7.7,7.7-7.7c3.3,0,6.2,2.5,6.2,7.2v16.2h7.5V60.5c0-8.8-4.3-13.9-12-13.9
		c-3,0-7.8,1.6-9.3,5.2v-19h-7.5v44.6H311.2z"/>
	<path d="M361,46.5c-8.6,0-15.8,6.1-15.8,15.7c0,9.4,6.8,15.8,15.8,15.8c5.5,0,10.7-2.3,13.5-6.7l-5-3.8c-1.8,2.5-4.9,3.8-8.2,3.8
		c-4.4,0-7.7-2.1-8.5-6.3H376c0.1-1.1,0.2-2.1,0.2-2.9C376.4,52.6,369.6,46.5,361,46.5z M353,59.7c0.9-4.6,4.1-6.5,8.2-6.5
		c4.2,0,7.3,2.4,7.8,6.5H353z"/>
	<rect x="382.2" y="32.8" width="7.5" height="44.6"/>
	<polygon points="407.7,36.1 400.3,36.1 400.3,47.2 394.8,47.2 394.8,53.2 400.3,53.2 400.3,77.4 407.7,77.4 407.7,53.2 414.1,53.2 
		414.1,47.2 407.7,47.2 	"/>
	<path d="M431.3,46.5c-8.6,0-15.8,6.1-15.8,15.7c0,9.4,6.8,15.8,15.8,15.8c5.5,0,10.7-2.3,13.5-6.7l-5-3.8c-1.8,2.5-4.9,3.8-8.2,3.8
		c-4.4,0-7.7-2.1-8.5-6.3h23.2c0.1-1.1,0.2-2.1,0.2-2.9C446.7,52.6,439.9,46.5,431.3,46.5z M423.3,59.7c0.9-4.6,4.1-6.5,8.2-6.5
		c4.2,0,7.3,2.4,7.8,6.5H423.3z"/>
	<path d="M468.6,46.5c-3.7,0-7,2.1-8.6,7.1v-6.5h-7.5v30.2h7.5V66.9c0-8.5,2.7-13.3,7.6-13.3c1.1,0,2.6,0.2,4.4,1.1l1.5-7.1
		C472.3,46.9,470.4,46.5,468.6,46.5z"/>
	<path d="M253.3,46.5c-8.6,0-16,6.1-16,15.7s7.4,15.8,16,15.8c8.6,0,16-6.3,16-15.8S261.9,46.5,253.3,46.5z M253.3,71.1
		c-4.6,0-8.4-3.6-8.4-8.9c0-5.2,3.8-8.7,8.4-8.7s8.5,3.5,8.5,8.7C261.8,67.5,258,71.1,253.3,71.1z"/>
</g>
</svg>
