<?xml version="1.0" encoding="utf-8"?>
<!-- Generator: Adobe Illustrator 23.0.4, SVG Export Plug-In . SVG Version: 6.00 Build 0)  -->
<svg version="1.1" id="Layer_1" xmlns="http://www.w3.org/2000/svg" xmlns:xlink="http://www.w3.org/1999/xlink" x="0px" y="0px"
	 viewBox="0 0 200 100" style="enable-background:new 0 0 200 100;" xml:space="preserve">
<style type="text/css">
	.st0{opacity:0.6;fill:#5587A2;enable-background:new    ;}
	.st1{opacity:0.15;}
	.st2{fill:#5587A2;}
</style>
<g>
	<path class="st0" d="M132.1,32.3h-2.4v-3.8c0-0.3-0.3-0.6-0.6-0.6H87v-1.7c0,0,0,0,0,0v0c0-0.3-0.3-0.6-0.6-0.6H70.8
		c-0.3,0-0.6,0.3-0.6,0.6c0,0,0,0,0,0c0,0,0,0,0,0c0,0,0,0,0,0v6h-2.4c0,0,0,0-0.1,0l0,0h0c0,0,0,0-0.1,0c-0.3,0.1-0.5,0.3-0.5,0.6
		l3.8,37.9c0,0,0,0,0,0s0,0,0,0c0,0.3,0.3,0.6,0.6,0.6h56.9c0.3,0,0.6-0.3,0.6-0.6l3.7-37.9c0,0,0-0.1,0-0.1
		C132.7,32.6,132.4,32.3,132.1,32.3z M71.4,26.8h14.5v1.7c0,0.3,0.3,0.6,0.6,0.6h42v3.2H71.4V26.8z M127.8,70.3H72l-3.6-36.8h63
		L127.8,70.3z"/>
	<g id="Group_17-2_2_" class="st1">
		<path id="Fill_15_2_" class="st2" d="M152,72.3c0,1.2-23.3,2.1-52,2.1s-52-0.9-52-2.1s23.3-2.1,52-2.1S152,71.1,152,72.3"/>
	</g>
	<g>
		<rect x="107.8" y="42.6" class="st2" width="1.4" height="1.4"/>
		<polygon class="st2" points="109.9,64.8 109.6,64.8 109.6,66.1 111.2,66.2 111.2,64.5 109.9,64.5 		"/>
		
			<rect x="106.3" y="64.6" transform="matrix(2.214998e-03 -1 1 2.214998e-03 41.2855 172.2818)" class="st2" width="1.4" height="1.8"/>
		
			<rect x="92.3" y="64.5" transform="matrix(2.215325e-03 -1 1 2.215325e-03 27.334 158.2377)" class="st2" width="1.4" height="1.8"/>
		
			<rect x="99.3" y="64.6" transform="matrix(2.215325e-03 -1 1 2.215325e-03 34.3097 165.26)" class="st2" width="1.4" height="1.8"/>
		
			<rect x="95.8" y="64.6" transform="matrix(2.214998e-03 -1 1 2.214998e-03 30.8218 161.7489)" class="st2" width="1.4" height="1.8"/>
		
			<rect x="102.8" y="64.6" transform="matrix(2.214998e-03 -1 1 2.214998e-03 37.7978 168.7708)" class="st2" width="1.4" height="1.8"/>
		<polygon class="st2" points="90.1,64.5 88.7,64.5 88.7,66.1 90.3,66.1 90.3,64.7 90.1,64.7 		"/>
		<rect x="88.4" y="53" transform="matrix(2.253939e-03 -1 1 2.253939e-03 35.5562 142.9698)" class="st2" width="2" height="1.4"/>
		<rect x="88.5" y="49" transform="matrix(2.253939e-03 -1 1 2.253939e-03 39.4935 139.0584)" class="st2" width="2" height="1.4"/>
		
			<rect x="88.5" y="45.1" transform="matrix(2.253939e-03 -1 1 2.253939e-03 43.4309 135.1472)" class="st2" width="2" height="1.4"/>
		
			<rect x="88.5" y="41.2" transform="matrix(2.253939e-03 -1 1 2.253939e-03 47.3682 131.2358)" class="st2" width="2" height="1.4"/>
		
			<rect x="88.4" y="56.9" transform="matrix(2.253939e-03 -1 1 2.253939e-03 31.6188 146.8811)" class="st2" width="2" height="1.4"/>
		
			<rect x="88.4" y="60.8" transform="matrix(2.253939e-03 -1 1 2.253939e-03 27.6815 150.7924)" class="st2" width="2" height="1.4"/>
		<polygon class="st2" points="88.8,39 90.1,39 90.1,38.7 90.4,38.7 90.4,37.3 88.8,37.3 		"/>
		<rect x="92.8" y="37" transform="matrix(2.165048e-03 -1 1 2.165048e-03 55.2182 131.3971)" class="st2" width="1.4" height="2"/>
		<rect x="96.8" y="37" transform="matrix(2.165048e-03 -1 1 2.165048e-03 59.2629 135.4681)" class="st2" width="1.4" height="2"/>
		
			<rect x="100.9" y="37" transform="matrix(2.292403e-03 -1 1 2.292403e-03 63.2945 139.5344)" class="st2" width="1.4" height="2"/>
		
			<rect x="109.7" y="53.7" transform="matrix(2.253939e-03 -1 1 2.253939e-03 55.9011 164.87)" class="st2" width="1.8" height="1.4"/>
		
			<rect x="109.7" y="50.1" transform="matrix(2.253939e-03 -1 1 2.253939e-03 59.5916 161.2041)" class="st2" width="1.8" height="1.4"/>
		<polyline class="st2" points="109.9,42.6 109.9,44.3 111.3,44.3 111.3,42.9 110.6,42.2 110.2,42.6 		"/>
		
			<rect x="109.7" y="46.4" transform="matrix(2.253939e-03 -1 1 2.253939e-03 63.2823 157.538)" class="st2" width="1.8" height="1.4"/>
		
			<rect x="107.5" y="39.8" transform="matrix(0.7109 -0.7033 0.7033 0.7109 2.6539 87.8375)" class="st2" width="1.4" height="1.8"/>
		
			<rect x="109.6" y="61.1" transform="matrix(2.253939e-03 -1 1 2.253939e-03 48.5201 172.2021)" class="st2" width="1.8" height="1.4"/>
		
			<rect x="109.6" y="57.4" transform="matrix(2.253939e-03 -1 1 2.253939e-03 52.2108 168.5361)" class="st2" width="1.8" height="1.4"/>
		<polygon class="st2" points="104.6,38.7 104.6,37.4 105.8,37.4 106.7,38.2 106.2,38.7 		"/>
		<rect x="104.8" y="41.8" class="st2" width="1.4" height="2.1"/>
		<rect x="104.8" y="39.4" class="st2" width="1.4" height="0.8"/>
	</g>
</g>
</svg>
