<?xml version="1.0" encoding="utf-8"?>
<!-- Generator: Adobe Illustrator 23.0.4, SVG Export Plug-In . SVG Version: 6.00 Build 0)  -->
<svg version="1.1" id="Layer_1" xmlns="http://www.w3.org/2000/svg" xmlns:xlink="http://www.w3.org/1999/xlink" x="0px" y="0px"
	 viewBox="0 0 200 100" style="enable-background:new 0 0 200 100;" xml:space="preserve">
<style type="text/css">
	.st0{opacity:0.15;fill:#D83F16;}
	.st1{fill:#D83F16;}
	.st2{opacity:0.6;fill:#D83F16;enable-background:new    ;}
</style>
<g>
	<path id="Fill_18-6_1_" class="st0" d="M193.4,81.2c0,1.2-41.8,2.2-93.4,2.2s-93.4-1-93.4-2.2C6.6,80,48.4,79,100,79
		S193.4,80,193.4,81.2"/>
	<g>
		<path class="st1" d="M105.9,74.6c0-0.3-0.1-0.6-0.4-0.8c-0.2-0.2-0.5-0.3-0.8-0.3c0,0,0,0,0,0l-6.2,0V38.6c0-3.3-2.7-6.1-6.1-6.1
			h-55c-3.3,0-6.1,2.7-6.1,6.1v34.9l-6.2,0c-0.6,0-1.2,0.5-1.2,1.2c0,0.6,0.1,1.6,0.5,2.5c0,0,0,0,0,0c0,0.1,0.1,0.2,0.1,0.3
			c0,0,0,0.1,0,0.1c0,0.1,0.1,0.1,0.1,0.2c0,0.1,0.1,0.1,0.1,0.2c0,0,0,0.1,0.1,0.1c0.2,0.3,0.4,0.6,0.7,0.8
			c1.2,1.2,3.1,1.9,5.5,1.9l67.8,0c2.4,0,4.2-0.6,5.5-1.9C105.7,77.4,105.9,75.6,105.9,74.6z M26,77.3c0-0.1-0.1-0.1-0.1-0.2
			c0-0.1-0.1-0.1-0.1-0.2c0,0,0,0,0-0.1c-0.4-0.8-0.5-1.6-0.5-2.2l30.2,0c0.1,0.6,0.5,1,0.9,1.4c0.4,0.3,1,0.5,1.6,0.5H72
			c1.2,0,2.2-0.8,2.5-1.9l30.2-0.1c0,0.8-0.2,2.2-1.2,3.3c-1,1-2.5,1.5-4.6,1.5l-67.8,0c-2.1,0-3.6-0.5-4.6-1.5
			C26.3,77.8,26.1,77.6,26,77.3C26,77.4,26,77.3,26,77.3z M93.2,73.5l-18.8,0c-0.6,0-1,0.4-1.1,0.9c-0.1,0.6-0.6,1-1.2,1H57.9
			c-0.3,0-0.6-0.1-0.8-0.3c-0.2-0.2-0.4-0.4-0.4-0.7c-0.1-0.4-0.4-0.7-0.7-0.9c0,0,0,0,0,0c0,0-0.1,0-0.1,0c0,0-0.1,0-0.1,0
			c0,0,0,0,0,0c-0.1,0-0.1,0-0.2,0l-18.8,0V37.4h56.5V73.5z M32.7,38.6c0-2.6,2.2-4.8,4.8-4.8h55c2.6,0,4.8,2.2,4.8,4.8v34.9l-2.8,0
			V36.2h0h-59h0v37.3l-2.8,0V38.6z"/>
		<path class="st1" d="M48.8,40.7h-8.1v6.5h8.1V40.7z M48.5,46.9h-7.4v-5.8h7.4V46.9z"/>
		<path class="st1" d="M48.8,52h-8.1v6.5h8.1V52z M48.5,58.1h-7.4v-5.8h7.4V58.1z"/>
		<path class="st1" d="M48.8,63.3h-8.1v6.5h8.1V63.3z M48.5,69.4h-7.4v-5.8h7.4V69.4z"/>
		<path class="st1" d="M87.7,40.7H52.3v29h35.4V40.7z M87.3,69.4H52.6V41.1h34.7V69.4z"/>
	</g>
	<path id="Fill_50-4_1_" class="st1" d="M152.9,71.8h-28.5c-0.4,0-0.7-0.3-0.7-0.7c0-0.4,0.3-0.7,0.7-0.7h28.5
		c0.4,0,0.7,0.3,0.7,0.7C153.7,71.5,153.3,71.8,152.9,71.8C152.9,71.8,152.9,71.8,152.9,71.8"/>
	<g>
		<path class="st1" d="M124.5,48.2h28.4v0c0.4,0,0.7-0.3,0.7-0.7c0,0,0,0,0,0c0-0.4-0.3-0.7-0.7-0.7h-28.4c0,0,0,0,0,0
			c-0.4,0-0.7,0.3-0.7,0.7C123.8,47.8,124.1,48.2,124.5,48.2z"/>
		<path class="st1" d="M152.9,40.8h-17.9c0,0,0,0,0,0c-0.4,0-0.7,0.3-0.7,0.7v0c0,0.4,0.3,0.7,0.7,0.7h17.9v0c0.4,0,0.7-0.3,0.7-0.7
			v0C153.6,41.1,153.3,40.8,152.9,40.8z"/>
		<path class="st1" d="M125.9,45v-3.6h1.9c1.3,0,2.3-0.3,3-0.9c0.3-0.3,0.6-0.6,0.8-1c0.2-0.4,0.3-0.9,0.3-1.3
			c0-0.6-0.2-1.2-0.5-1.7c-0.3-0.5-0.8-0.9-1.4-1.2c-0.7-0.3-1.4-0.4-2.1-0.4h-4.1V45L125.9,45L125.9,45z M125.9,36.6l2,0
			c0.5,0,0.9,0.2,1.3,0.5c0.3,0.3,0.5,0.8,0.5,1.2c0,0.4-0.1,0.8-0.5,1.1c-0.4,0.3-0.9,0.4-1.3,0.4h-2V36.6z"/>
		<path class="st1" d="M135,36.3h17.9c0.4,0,0.7-0.3,0.7-0.7c0-0.4-0.3-0.7-0.7-0.7H135c0,0,0,0,0,0c-0.4,0-0.7,0.3-0.7,0.7
			C134.3,36,134.6,36.3,135,36.3z"/>
		<path class="st1" d="M153.6,53.4c0-0.4-0.3-0.7-0.7-0.7h-28.5c-0.3,0-0.6,0.3-0.7,0.6c0,0.1,0,0.1,0,0.2v17.6
			c0,0.4,0.3,0.7,0.7,0.7h0c0.4,0,0.7-0.3,0.7-0.7v-17h27.2v17c0,0.4,0.3,0.7,0.7,0.7h0c0,0,0,0,0,0c0.4,0,0.7-0.3,0.7-0.7V53.5
			C153.6,53.5,153.7,53.4,153.6,53.4z"/>
		<path class="st1" d="M131.8,58.4c-3.2,0-5.6,3.7-3,7.1c3.4,2.6,7.1,0.2,7.1-3h-4.1V58.4z"/>
		<path class="st1" d="M132.3,58V62h4.1C136.4,59.8,134.5,58,132.3,58z"/>
		<path class="st1" d="M144.4,61.7c-0.4,0-0.7,0.3-0.7,0.7v3.4c0,0.4,0.3,0.7,0.7,0.7h0c0.4,0,0.7-0.3,0.7-0.7v-3.4c0,0,0,0,0,0
			C145.1,62.1,144.8,61.7,144.4,61.7z"/>
		<path class="st1" d="M148.9,60.8c-0.4,0-0.7,0.3-0.7,0.7v4.4c0,0.4,0.3,0.7,0.7,0.7c0.4,0,0.7-0.3,0.7-0.7v-4.4
			C149.6,61.1,149.3,60.8,148.9,60.8z"/>
		<path class="st1" d="M139.9,58c-0.4,0-0.7,0.3-0.7,0.7v7.2c0,0.4,0.3,0.7,0.7,0.7v0c0.4,0,0.7-0.3,0.7-0.7v-7.2c0,0,0,0,0,0
			C140.6,58.3,140.3,58,139.9,58z"/>
	</g>
	<g>
		<path class="st2" d="M161.8,26.1l-9.3-9.3c0,0-0.1-0.1-0.1-0.1c-0.1-0.1-0.3-0.1-0.4-0.1h-36c-0.4,0-0.7,0.3-0.7,0.7v62.1
			c0,0.4,0.3,0.7,0.7,0.7h45.3c0.1,0,0.2,0,0.2,0c0.3-0.1,0.5-0.4,0.5-0.7V26.6c0-0.1,0-0.1,0-0.2C162,26.3,162,26.2,161.8,26.1z
			 M152.7,19l7.1,7.1h-7.1V19z M160.6,78.7h-43.8V18h34.5v8.9c0,0.4,0.3,0.7,0.7,0.7h8.6V78.7z"/>
		<path class="st2" d="M175.3,42.5c0-0.1,0-0.1,0-0.2l-1.6-5.1c0,0,0-0.1-0.1-0.1c0,0,0-0.1-0.1-0.1c0,0,0,0,0,0c0,0,0-0.1-0.1-0.1
			c0,0,0,0,0,0c0,0,0,0-0.1-0.1c0,0,0,0,0,0c0,0-0.1,0-0.1-0.1c0,0-0.1,0-0.1,0c0,0,0,0,0,0c0,0-0.1,0-0.1,0c0,0,0,0,0,0
			c0,0-0.1,0-0.1,0c0,0,0,0,0,0c-0.1,0-0.1,0.1-0.2,0.1c0,0,0,0,0,0c0,0,0,0-0.1,0.1c0,0,0,0,0,0c0,0,0,0,0,0.1c0,0,0,0,0,0
			c0,0,0,0.1,0,0.1c0,0,0,0,0,0l-1.7,5.2c0,0,0,0,0,0.1v37.1c0,0.1,0,0.2,0.1,0.3c0.1,0.2,0.2,0.3,0.4,0.4c0.1,0,0.1,0,0.2,0h3.3
			c0.3,0,0.6-0.3,0.6-0.6L175.3,42.5L175.3,42.5C175.3,42.5,175.3,42.5,175.3,42.5z M174.1,78.9H172V42.6l1-3.3l1,3.2V78.9z"/>
	</g>
</g>
</svg>
