<?xml version="1.0" encoding="utf-8"?>

<svg id="ps-powerpoint" xmlns="http://www.w3.org/2000/svg" viewBox="0 0 170 170"><title>powerpoint_1</title><path d="M138.74,34.69a1.67,1.67,0,0,0-.46-.87L116.86,12.4a1.81,1.81,0,0,0-1.22-.52H32.91a1.68,1.68,0,0,0-1.68,1.68V156.43h0a1.68,1.68,0,0,0,1.68,1.68H137.1a1.68,1.68,0,0,0,.66-.13h0a1.68,1.68,0,0,0,1-1.54V35.63h0V35A1.69,1.69,0,0,0,138.74,34.69Z" style="fill:#fff"/><rect x="50.63" y="81.29" width="68.73" height="3.32" rx="1.66" ry="1.66" style="fill:#d83f16"/><rect x="75.02" y="67.61" width="44.38" height="3.34" rx="1.65" ry="1.65" style="fill:#d83f16"/><path d="M55.64,69.08v8.18h-5V54h9.54A11.54,11.54,0,0,1,65,55a7.14,7.14,0,0,1,4.34,6.73,6.52,6.52,0,0,1-2.46,5.38,10.63,10.63,0,0,1-6.81,2Zm0-3.88h4.5a4.59,4.59,0,0,0,3-.89,3.17,3.17,0,0,0,1.05-2.55A3.72,3.72,0,0,0,63.18,59a4.07,4.07,0,0,0-2.92-1.08H55.64Z" style="fill:#d83f16"/><rect x="74.96" y="54.05" width="44.43" height="3.26" rx="1.63" ry="1.63" style="fill:#d83f16"/><rect x="50.63" y="135.82" width="68.74" height="3.26" rx="1.63" ry="1.63" style="fill:#d83f16"/><rect x="30.37" y="115.46" width="43.69" height="3.17" rx="1.58" ry="1.58" transform="translate(-64.83 169.27) rotate(-90)" style="fill:#d83f16"/><rect x="50.63" y="94.99" width="68.73" height="3.27" rx="1.63" ry="1.63" style="fill:#d83f16"/><rect x="96" y="115.56" width="43.72" height="3.02" rx="1.51" ry="1.51" transform="translate(0.78 234.93) rotate(-90)" style="fill:#d83f16"/><path d="M69.24,117.52v-9.39c-7.39,0-12.78,8.53-6.88,16.27,7.75,5.9,16.27.51,16.27-6.88Z" style="fill:#d83f16"/><path d="M70.23,107.14v9.39h9.39A9.39,9.39,0,0,0,70.23,107.14Z" style="fill:#d83f16"/><rect x="96.64" y="115.84" width="3.17" height="11.07" rx="1.59" ry="1.59" style="fill:#d83f16"/><rect x="106.98" y="113.73" width="3.17" height="13.18" rx="1.59" ry="1.59" style="fill:#d83f16"/><rect x="86.31" y="107.14" width="3.17" height="19.77" rx="1.59" ry="1.59" style="fill:#d83f16"/><g style="opacity:0.6000000000000001"><rect x="31.22" y="154.75" width="107.56" height="3.37" rx="1.68" ry="1.68" style="fill:#d83f16"/><rect x="74.72" y="94.05" width="124.75" height="3.37" rx="1.68" ry="1.68" transform="translate(41.36 232.83) rotate(-90)" style="fill:#d83f16"/><rect x="-40.21" y="83.32" width="146.22" height="3.37" rx="1.68" ry="1.68" transform="translate(-52.1 117.9) rotate(-90)" style="fill:#d83f16"/><rect x="31.22" y="11.89" width="86.09" height="3.37" rx="1.68" ry="1.68" style="fill:#d83f16"/><rect x="109.55" y="22.62" width="33.66" height="3.37" rx="1.68" ry="1.68" transform="translate(198.55 130.85) rotate(-135)" style="fill:#d83f16"/><rect x="113.96" y="33.95" width="24.82" height="3.37" rx="1.68" ry="1.68" style="fill:#d83f16"/><rect x="102.92" y="22.92" width="25.43" height="3.37" rx="1.68" ry="1.68" transform="translate(91.03 140.23) rotate(-90)" style="fill:#d83f16"/></g></svg>