<?xml version="1.0" encoding="utf-8"?>
<!-- Generator: Adobe Illustrator 23.0.4, SVG Export Plug-In . SVG Version: 6.00 Build 0)  -->
<svg version="1.1" id="Layer_1" xmlns="http://www.w3.org/2000/svg" xmlns:xlink="http://www.w3.org/1999/xlink" x="0px" y="0px"
	 viewBox="0 0 200 100" style="enable-background:new 0 0 200 100;" xml:space="preserve">
<style type="text/css">
	.st0{opacity:0.15;fill:#978C87;}
	.st1{fill:#978C87;}
	.st2{opacity:0.6;fill:#978C87;enable-background:new    ;}
</style>
<g>
	<path id="Fill_18-2_1_" class="st0" d="M193.4,81.2c0,1.2-41.8,2.2-93.4,2.2s-93.4-1-93.4-2.2C6.6,80,48.4,79,100,79
		S193.4,80,193.4,81.2"/>
	<g>
		<path class="st1" d="M105.8,75c0-0.1,0-0.3,0-0.4c0-0.6-0.5-1.2-1.2-1.2c0,0,0,0,0,0l-6.2,0V38.6c0-3.3-2.7-6.1-6.1-6.1h-55
			c-3.3,0-6.1,2.7-6.1,6.1v34.9l-6.2,0c0,0,0,0,0,0c-0.2,0-0.5,0.1-0.6,0.2c0,0-0.1,0-0.1,0.1c0,0-0.1,0-0.1,0.1
			C24.1,74,24,74.3,24,74.5c0,0,0,0.1,0,0.1c0,0.1,0,0.1,0,0.2c0,1,0.3,2.7,1.6,4.1c1.2,1.2,3.1,1.9,5.5,1.9l67.8,0
			c0.2,0,0.4,0,0.6,0c2.1-0.1,3.8-0.7,4.9-1.8C105.5,77.6,105.8,76,105.8,75z M103.3,78c-0.9,0.9-2.2,1.4-4,1.5c-0.2,0-0.3,0-0.5,0
			l-67.8,0c-2.1,0-3.6-0.5-4.6-1.5c-1-1.1-1.2-2.5-1.2-3.3l30.2,0c0,0,0,0.1,0,0.1c0,0,0,0,0,0.1c0,0,0,0.1,0,0.1c0,0,0,0.1,0,0.1
			c0,0,0,0,0,0c0.4,0.9,1.3,1.5,2.3,1.5h14.1c0.1,0,0.1,0,0.2,0c1.1-0.1,2-0.8,2.2-1.9l30.2,0c0,0.1,0,0.1,0,0.2
			C104.5,75.7,104.3,77,103.3,78z M93.1,73.5l-4.6,0l-14.3,0c-0.6,0-1,0.4-1.1,0.9c-0.1,0.5-0.5,0.9-1,1c-0.1,0-0.1,0-0.2,0H57.9
			c-0.4,0-0.8-0.2-1-0.5c0,0,0,0,0-0.1c0,0,0-0.1,0-0.1c0,0,0-0.1-0.1-0.1c0,0,0,0,0-0.1c0,0,0-0.1,0-0.2c-0.1-0.5-0.6-0.9-1.1-0.9
			l-18.8,0V37.4h56.5V73.5z M32.6,38.6c0-2.6,2.2-4.8,4.8-4.8h55c2.6,0,4.8,2.2,4.8,4.8v34.9l-2.8,0V36.2h0h-59h0v37.3l-2.8,0V38.6z
			"/>
		<rect x="40.9" y="40.6" class="st1" width="12.6" height="0.4"/>
		<rect x="40.9" y="46.3" class="st1" width="46.6" height="0.4"/>
		<rect x="40.9" y="52.1" class="st1" width="46.6" height="0.4"/>
		<rect x="40.9" y="57.8" class="st1" width="46.6" height="0.4"/>
		<rect x="40.9" y="63.6" class="st1" width="46.6" height="0.4"/>
		<rect x="40.9" y="69.4" class="st1" width="46.6" height="0.4"/>
	</g>
	<g>
		<polygon class="st1" points="126.8,45 128.9,45 128.9,36.6 132,36.6 132,34.9 123.8,34.9 123.8,36.6 126.8,36.6 		"/>
		<polygon class="st1" points="136.2,45 138.2,41.4 140.1,45 142.6,45 139.5,39.9 142.5,34.9 140.1,34.9 138.2,38.4 136.3,34.9 
			133.9,34.9 136.8,39.9 133.8,45 		"/>
		<polygon class="st1" points="144.2,36.6 147.3,36.6 147.3,45 149.4,45 149.4,36.6 152.5,36.6 152.5,34.9 144.2,34.9 		"/>
		<path class="st1" d="M124.5,60h28.4c0.4,0,0.7-0.3,0.7-0.7c0-0.4-0.3-0.7-0.7-0.7h-28.4c-0.4,0-0.7,0.3-0.7,0.7
			C123.8,59.7,124.1,60,124.5,60z"/>
		<path class="st1" d="M152.9,52.7h-28.5c0,0,0,0,0,0c-0.4,0-0.7,0.3-0.7,0.7c0,0.4,0.3,0.7,0.7,0.7h28.5c0,0,0,0,0,0
			c0.4,0,0.7-0.3,0.7-0.7C153.7,53,153.3,52.7,152.9,52.7z"/>
		<path class="st1" d="M123.8,47.4c0,0.4,0.3,0.7,0.7,0.7h28.4c0.4,0,0.7-0.3,0.7-0.7c0-0.4-0.3-0.7-0.7-0.7h-28.4
			C124.1,46.7,123.8,47.1,123.8,47.4z"/>
		<path class="st1" d="M152.9,70.4h-28.5c-0.4,0-0.7,0.3-0.7,0.7c0,0.4,0.3,0.7,0.7,0.7h28.5c0,0,0,0,0,0c0.4,0,0.7-0.3,0.7-0.7
			C153.7,70.7,153.3,70.4,152.9,70.4z"/>
		<path class="st1" d="M124.5,66h28.5c0,0,0,0,0,0c0.4,0,0.7-0.3,0.7-0.7c0-0.4-0.3-0.7-0.7-0.7h-28.5c-0.4,0-0.7,0.3-0.7,0.7
			C123.8,65.6,124.1,66,124.5,66z"/>
		<path class="st1" d="M162.1,26.5c0-0.1-0.1-0.3-0.2-0.4l-9.3-9.3c0,0-0.1-0.1-0.1-0.1c-0.1-0.1-0.3-0.1-0.4-0.1h-36
			c-0.4,0-0.7,0.3-0.7,0.7v62.1c0,0.4,0.3,0.7,0.7,0.7h45.3l0,0c0.4,0,0.7-0.3,0.7-0.7V26.6C162.1,26.6,162.1,26.5,162.1,26.5z
			 M152.8,19.1l7.1,7.1h-7.1V19.1z M160.6,78.7h-43.8V18h34.5v8.9c0,0.4,0.3,0.7,0.7,0.7h8.6V78.7z"/>
	</g>
	<path id="Fill_65_1_" class="st2" d="M174.7,80.1h-3.3c-0.3,0-0.5-0.2-0.6-0.4c0-0.1-0.1-0.2-0.1-0.3V42.4c0,0,0,0,0-0.1l1.7-5.2
		c0.1-0.3,0.3-0.4,0.6-0.4c0.1,0,0.1,0,0.2,0c0.2,0.1,0.3,0.2,0.4,0.3c0,0,0,0.1,0.1,0.1l1.6,5.1c0,0.1,0,0.1,0,0.2v37
		C175.4,79.8,175.1,80.1,174.7,80.1z M173.1,39.3l-1,3.3v36.3h2.1V42.6L173.1,39.3z"/>
</g>
</svg>
