<?xml version="1.0" encoding="utf-8"?>
<!-- Generator: Adobe Illustrator 23.0.4, SVG Export Plug-In . SVG Version: 6.00 Build 0)  -->
<svg version="1.1" id="Layer_1" xmlns="http://www.w3.org/2000/svg" xmlns:xlink="http://www.w3.org/1999/xlink" x="0px" y="0px"
	 viewBox="0 0 81 100" style="enable-background:new 0 0 81 100;" xml:space="preserve">
<style type="text/css">
	.st0{fill:#978C87;}
</style>
<g>
	<polygon class="st0" points="26.8,46.1 29.2,46.1 29.2,36.4 32.8,36.4 32.8,34.5 23.2,34.5 23.2,36.4 26.8,36.4 	"/>
	<polygon class="st0" points="37.6,46.1 39.9,42 42.1,46.1 45,46.1 41.5,40.2 44.9,34.5 42.1,34.5 39.9,38.5 37.7,34.5 34.9,34.5 
		38.3,40.2 34.8,46.1 	"/>
	<polygon class="st0" points="50.4,46.1 52.8,46.1 52.8,36.4 56.4,36.4 56.4,34.5 46.9,34.5 46.9,36.4 50.4,36.4 	"/>
	<path class="st0" d="M24.1,63.5h32.9c0,0,0,0,0,0c0.5,0,0.8-0.4,0.8-0.8c0-0.5-0.4-0.8-0.8-0.8H24.1c0,0,0,0,0,0
		c-0.5,0-0.8,0.4-0.8,0.8C23.2,63.1,23.6,63.5,24.1,63.5z"/>
	<path class="st0" d="M24.1,56.7h32.9c0.4,0,0.8-0.4,0.8-0.8c0-0.5-0.3-0.8-0.8-0.8H24.1c0,0,0,0,0,0c-0.5,0-0.8,0.4-0.8,0.8
		C23.2,56.3,23.6,56.7,24.1,56.7z"/>
	<path class="st0" d="M24.1,49.8h32.8c0.5,0,0.8-0.4,0.8-0.8s-0.4-0.8-0.8-0.8H24.1c0,0,0,0,0,0c-0.5,0-0.8,0.4-0.8,0.8
		C23.2,49.4,23.6,49.8,24.1,49.8z"/>
	<path class="st0" d="M56.9,75.5H24.1c-0.4,0-0.8,0.4-0.8,0.8c0,0.5,0.3,0.8,0.8,0.8h32.9c0.4,0,0.8-0.4,0.8-0.8
		C57.7,75.9,57.4,75.5,56.9,75.5z"/>
	<path class="st0" d="M56.9,68.7H24.1c0,0,0,0,0,0c-0.5,0-0.8,0.4-0.8,0.8c0,0.5,0.4,0.8,0.8,0.8h32.9c0.4,0,0.8-0.4,0.8-0.8
		C57.7,69.1,57.4,68.7,56.9,68.7z"/>
	<path class="st0" d="M67.5,85.7V85v-59v-0.7c0-0.1,0-0.1,0-0.2c0-0.1,0-0.1,0-0.2v-0.1v-0.5v-0.3H67L56.7,13.8v-0.5h-0.7
		c-0.1,0-0.1,0-0.2,0c-0.1,0-0.1,0-0.2,0H55H15.2h-0.7c-0.1,0-0.1,0-0.2,0c-0.1,0-0.1,0-0.2,0h-0.7V14c0,0.1,0,0.1,0,0.2
		c0,0.1,0,0.1,0,0.2V85v0.7c0,0.1,0,0.1,0,0.2c0,0.1,0,0.1,0,0.2v0.7h0.7c0.1,0,0.1,0,0.2,0c0.1,0,0.1,0,0.2,0h0.7h50.6h0.8h0h0.8
		V86c0-0.1,0-0.1,0-0.2C67.5,85.8,67.5,85.7,67.5,85.7z M56.7,16.2l8.2,8.2h-8.2V16.2z M15.2,85V15H55v9.4V25c0,0.1,0,0.1,0,0.2
		c0,0.1,0,0.1,0,0.2v0.7h0.7c0.1,0,0.1,0,0.2,0c0.1,0,0.1,0,0.2,0h0.7h9.1v59H15.2z"/>
</g>
</svg>
