<?xml version="1.0" encoding="utf-8"?>
<!-- Generator: Adobe Illustrator 23.0.4, SVG Export Plug-In . SVG Version: 6.00 Build 0)  -->
<svg version="1.1" id="Layer_1" xmlns="http://www.w3.org/2000/svg" xmlns:xlink="http://www.w3.org/1999/xlink" x="0px" y="0px"
	 viewBox="0 0 200 100" style="enable-background:new 0 0 200 100;" xml:space="preserve">
<style type="text/css">
	.st0{opacity:0.6;fill:#007A7C;enable-background:new    ;}
	.st1{fill:#007A7C;}
</style>
<g>
	<path class="st0" d="M128.6,68.3l-57.9,0c-3.6,0-6.6-3-6.6-6.6c0-0.4,0-0.7,0.1-1.1c0.3-1.7,1.2-3.3,2.6-4.3
		c1.3-0.9,2.8-1.3,4.4-1.2c1-3.4,3.6-6,7-7c0.6-5.5,3.6-10.5,8.2-13.5c8.3-5.4,19.5-3.1,25,5.1c0.5,0,1-0.1,1.5-0.1
		c3.9,0,7.7,1.5,10.5,4.1c2.7,2.5,4.2,5.8,4.5,9.3c2-0.1,4,0.6,5.5,2c1.5,1.4,2.4,3.3,2.5,5.3c0.1,2-0.6,4-2,5.5
		C132.5,67.3,130.6,68.2,128.6,68.3z M70.7,56.3c-1.1,0-2.2,0.4-3.1,1c-1.2,0.8-1.9,2.1-2.2,3.5c0,0.3-0.1,0.6-0.1,0.9c0,0,0,0,0,0
		c0,3,2.4,5.4,5.4,5.4l57.9,0c1.7-0.1,3.3-0.8,4.4-2.1c1.2-1.3,1.8-2.9,1.7-4.6c-0.1-1.7-0.8-3.3-2.1-4.5c-1.3-1.2-2.9-1.8-4.6-1.7
		c-0.2,0-0.4,0-0.5,0c-0.2,0-0.3,0-0.5-0.1c-0.1-0.1-0.2-0.3-0.2-0.4c-0.1-3.4-1.5-6.7-4.1-9.1c-2.6-2.4-6-3.8-9.6-3.8
		c-0.6,0-1.1,0-1.7,0.1c-0.2,0-0.5-0.1-0.6-0.3c-5.1-7.9-15.7-10.1-23.6-5c-4.4,2.9-7.3,7.7-7.7,13c0,0.3-0.2,0.5-0.5,0.5
		c-3.3,0.8-5.9,3.4-6.7,6.7c-0.1,0.3-0.4,0.5-0.7,0.5C71.3,56.3,71,56.3,70.7,56.3z"/>
	<path class="st1" d="M104,48.7l-3.5-3.5l0,0l0,0l0,0c0,0,0,0,0,0c-0.3-0.3-0.7-0.3-1,0c0,0,0,0.1-0.1,0.1L96,48.7
		c-0.3,0.3-0.3,0.7,0,1c0.3,0.3,0.7,0.3,1,0l2.3-2.3v13.8c0,0.4,0.3,0.7,0.7,0.7c0.4,0,0.7-0.3,0.7-0.7v0V47.4l2.3,2.3
		c0.3,0.3,0.7,0.3,0.9,0C104.2,49.4,104.2,49,104,48.7z"/>
</g>
</svg>
