<?xml version="1.0" encoding="UTF-8"?>
<svg viewBox="0 19.110000610351562 200.19000244140625 161.77999877929688" preserveAspectRatio="xMidYMid meet" focusable="false" class="style-scope iron-icon" style="pointer-events: none; display: block; width: 100%; height: 100%;"><g class="style-scope iron-icon"><rect y="19.11" width="200.19" height="161.78" rx="35.8" ry="35.8" style="fill:transparent" class="style-scope iron-icon"></rect><path d="M164.39,34.11a20.82,20.82,0,0,1,20.8,20.8v90.18a20.82,20.82,0,0,1-20.8,20.8H35.8A20.82,20.82,0,0,1,15,145.09V54.91a20.82,20.82,0,0,1,20.8-20.8H164.39m0-15H35.8A35.8,35.8,0,0,0,0,54.91v90.18a35.8,35.8,0,0,0,35.8,35.8H164.39a35.8,35.8,0,0,0,35.8-35.8V54.91a35.8,35.8,0,0,0-35.8-35.8Z" style="fill:currentcolor" class="style-scope iron-icon"></path><polygon points="69.31 65.14 69.31 134.86 140.69 99.86 69.31 65.14" style="fill:currentcolor" class="style-scope iron-icon"></polygon></g></svg>