<?xml version="1.0" encoding="utf-8"?>

<svg id="ps-word" xmlns="http://www.w3.org/2000/svg" viewBox="0 0 170 170"><title>word_1</title><path d="M138.74,34.69a1.67,1.67,0,0,0-.46-.86L116.86,12.4a1.81,1.81,0,0,0-1.22-.52H32.9a1.68,1.68,0,0,0-1.68,1.68h0V156.43h0a1.68,1.68,0,0,0,1.68,1.68H137.1a1.68,1.68,0,0,0,.66-.13h0a1.68,1.68,0,0,0,1-1.54V35.63h0V35A1.68,1.68,0,0,0,138.74,34.69Z" style="fill:#fff"/><path d="M70.25,70.45l3.13-16.39h4.77L73,77.09H68.17L64.39,61.68,60.61,77.09H55.8l-5.15-23h4.77l3.14,16.36,3.83-16.36h4.05Z" style="fill:#009cde"/><rect x="50.67" y="135.82" width="68.69" height="3.26" rx="1.63" ry="1.63" style="fill:#009cde"/><rect x="50.68" y="122.27" width="68.69" height="3.26" rx="1.63" ry="1.63" style="fill:#009cde"/><rect x="50.68" y="108.57" width="68.69" height="3.29" rx="1.65" ry="1.65" style="fill:#009cde"/><rect x="50.68" y="94.99" width="68.69" height="3.27" rx="1.63" ry="1.63" style="fill:#009cde"/><rect x="50.68" y="81.35" width="68.69" height="3.26" rx="1.63" ry="1.63" style="fill:#009cde"/><rect x="83.41" y="67.7" width="35.96" height="3.26" rx="1.63" ry="1.63" style="fill:#009cde"/><rect x="83.41" y="54.05" width="35.96" height="3.26" rx="1.63" ry="1.63" style="fill:#009cde"/><g style="opacity:0.6000000000000001"><rect x="31.22" y="154.75" width="107.56" height="3.37" rx="1.68" ry="1.68" style="fill:#009cde"/><rect x="74.72" y="94.05" width="124.75" height="3.37" rx="1.68" ry="1.68" transform="translate(41.36 232.83) rotate(-90)" style="fill:#009cde"/><rect x="-40.21" y="83.32" width="146.22" height="3.37" rx="1.68" ry="1.68" transform="translate(-52.1 117.9) rotate(-90)" style="fill:#009cde"/><rect x="31.22" y="11.89" width="86.09" height="3.37" rx="1.68" ry="1.68" style="fill:#009cde"/><rect x="109.55" y="22.62" width="33.66" height="3.37" rx="1.68" ry="1.68" transform="translate(198.55 130.85) rotate(-135)" style="fill:#009cde"/><rect x="113.96" y="33.95" width="24.82" height="3.37" rx="1.68" ry="1.68" style="fill:#009cde"/><rect x="102.92" y="22.92" width="25.43" height="3.37" rx="1.68" ry="1.68" transform="translate(91.03 140.23) rotate(-90)" style="fill:#009cde"/></g></svg>