<?xml version="1.0" encoding="utf-8"?>
<!-- Generator: Adobe Illustrator 23.0.4, SVG Export Plug-In . SVG Version: 6.00 Build 0)  -->
<svg version="1.1" id="Layer_1" xmlns="http://www.w3.org/2000/svg" xmlns:xlink="http://www.w3.org/1999/xlink" x="0px" y="0px"
	 viewBox="0 0 200 100" style="enable-background:new 0 0 200 100;" xml:space="preserve">
<style type="text/css">
	.st0{opacity:0.15;fill:#009CDE;enable-background:new    ;}
	.st1{fill:#009CDE;}
	.st2{opacity:0.6;fill:#009CDE;enable-background:new    ;}
</style>
<g>
	<path id="Fill_18-7_1_" class="st0" d="M193.4,81.2c0,1.2-41.8,2.2-93.4,2.2s-93.4-1-93.4-2.2C6.6,80,48.4,79,100,79
		S193.4,80,193.4,81.2"/>
	<g>
		<path class="st1" d="M105.9,74.6c0-0.6-0.5-1.2-1.2-1.2c0,0,0,0,0,0l-6.2,0V38.6c0-3.3-2.7-6.1-6.1-6.1h-55
			c-3.3,0-6.1,2.7-6.1,6.1v34.9l-6.2,0c0,0,0,0,0,0c-0.6,0-1.2,0.5-1.2,1.2c0,1,0.2,2.8,1.6,4.3c1.2,1.2,3.1,1.9,5.5,1.9l67.8,0
			c2.4,0,4.2-0.6,5.5-1.9C105.7,77.4,105.9,75.6,105.9,74.6z M32.7,38.6c0-2.6,2.2-4.8,4.8-4.8h55c2.6,0,4.8,2.2,4.8,4.8v34.9
			l-2.8,0V36.2h0h-59h0v37.3l-2.8,0V38.6z M74.4,73.5c-0.6,0-1,0.4-1.1,0.9c-0.1,0.6-0.6,1-1.2,1H57.9c-0.6,0-1.1-0.4-1.2-1
			c-0.1-0.5-0.6-0.9-1.1-0.9l-18.8,0V37.4h56.5v36L74.4,73.5z M103.4,78c-1,1-2.5,1.5-4.6,1.5l-67.8,0c-2.1,0-3.6-0.5-4.6-1.5
			c-1-1.1-1.2-2.5-1.2-3.3l30.2,0c0.3,1.1,1.3,1.9,2.5,1.9H72c1.2,0,2.2-0.8,2.5-1.9l30.2-0.1C104.6,75.5,104.4,76.9,103.4,78z"/>
		<rect x="40.9" y="40.7" class="st1" width="12.6" height="0.4"/>
		<rect x="40.9" y="46.5" class="st1" width="46.6" height="0.4"/>
		<rect x="40.9" y="52.2" class="st1" width="46.6" height="0.4"/>
		<rect x="40.9" y="57.9" class="st1" width="46.6" height="0.4"/>
		<rect x="40.9" y="63.6" class="st1" width="46.6" height="0.4"/>
		<rect x="40.9" y="69.4" class="st1" width="46.6" height="0.4"/>
	</g>
	<g>
		<polygon class="st1" points="128.1,44.9 129.7,38.2 131.4,44.9 133.5,44.9 135.7,34.9 133.7,34.9 132.3,42 130.6,34.9 128.9,34.9 
			127.2,42 125.8,34.9 123.8,34.9 126,44.9 		"/>
		<path class="st1" d="M152.9,70.4h-28.4c-0.4,0-0.7,0.3-0.7,0.7c0,0.4,0.3,0.7,0.7,0.7h28.4c0.4,0,0.7-0.3,0.7-0.7
			C153.6,70.7,153.3,70.4,152.9,70.4z"/>
		<path class="st1" d="M152.9,64.5h-28.4c-0.4,0-0.7,0.3-0.7,0.7c0,0.4,0.3,0.7,0.7,0.7h28.4c0.4,0,0.7-0.3,0.7-0.7
			C153.6,64.8,153.3,64.5,152.9,64.5z"/>
		<path class="st1" d="M152.9,58.6h-28.4c-0.4,0-0.7,0.3-0.7,0.7s0.3,0.7,0.7,0.7h28.4c0.4,0,0.7-0.3,0.7-0.7S153.3,58.6,152.9,58.6
			z"/>
		<path class="st1" d="M152.9,52.7h-28.4c-0.4,0-0.7,0.3-0.7,0.7c0,0.4,0.3,0.7,0.7,0.7h28.4c0.4,0,0.7-0.3,0.7-0.7
			C153.6,53,153.3,52.7,152.9,52.7z"/>
		<path class="st1" d="M123.8,47.5c0,0.4,0.3,0.7,0.7,0.7h28.4c0.4,0,0.7-0.3,0.7-0.7c0-0.4-0.3-0.7-0.7-0.7h-28.4
			C124.1,46.7,123.8,47.1,123.8,47.5z"/>
		<path class="st1" d="M152.9,42.2c0.4,0,0.7-0.3,0.7-0.7c0-0.4-0.3-0.7-0.7-0.7h-14.2c-0.4,0-0.7,0.3-0.7,0.7
			c0,0.4,0.3,0.7,0.7,0.7H152.9z"/>
		<path class="st1" d="M138.7,34.9c-0.4,0-0.7,0.3-0.7,0.7c0,0.4,0.3,0.7,0.7,0.7h14.2c0.4,0,0.7-0.3,0.7-0.7c0-0.4-0.3-0.7-0.7-0.7
			H138.7C138.7,34.9,138.7,34.9,138.7,34.9z"/>
		<path class="st1" d="M161.9,26.1l-9.3-9.3c0,0-0.1-0.1-0.1-0.1c-0.1-0.1-0.3-0.1-0.4-0.1h-36c-0.4,0-0.7,0.3-0.7,0.7v62.1
			c0,0.4,0.3,0.7,0.7,0.7h45.3v0c0.4,0,0.7-0.3,0.7-0.7V26.6C162.1,26.4,162,26.2,161.9,26.1z M152.8,19l7.1,7.1h-7.1V19z
			 M160.6,78.6h-43.8V18h34.5v8.9c0,0.4,0.3,0.7,0.7,0.7h8.6V78.6z"/>
	</g>
	<path class="st2" d="M175.3,42.2l-1.6-5.1c0,0,0-0.1-0.1-0.1v0c-0.1-0.2-0.2-0.3-0.4-0.3c-0.1,0-0.1,0-0.2,0
		c-0.3,0-0.5,0.2-0.6,0.4l-1.7,5.2c0,0,0,0,0,0.1v37.1c0,0.1,0,0.2,0.1,0.3c0.1,0.3,0.3,0.4,0.6,0.4h3.3c0.3,0,0.6-0.3,0.6-0.6v-37
		C175.4,42.4,175.3,42.3,175.3,42.2z M174.1,78.9H172V42.6l1-3.3l1,3.2V78.9z"/>
</g>
</svg>
