<?xml version="1.0" encoding="utf-8"?>
<!-- Generator: Adobe Illustrator 23.0.4, SVG Export Plug-In . SVG Version: 6.00 Build 0)  -->
<svg version="1.1" id="Layer_1" xmlns="http://www.w3.org/2000/svg" xmlns:xlink="http://www.w3.org/1999/xlink" x="0px" y="0px"
	 viewBox="0 0 200 100" style="enable-background:new 0 0 200 100;" xml:space="preserve">
<style type="text/css">
	.st0{opacity:0.15;fill:#685BC6;}
	.st1{fill:#685BC6;}
	.st2{opacity:0.6;fill:#685BC6;enable-background:new    ;}
</style>
<g>
	<path id="Fill_18-3_1_" class="st0" d="M193.4,81.2c0,1.2-41.8,2.2-93.4,2.2s-93.4-1-93.4-2.2C6.6,80,48.4,79,100,79
		S193.4,80,193.4,81.2"/>
	<g>
		<path class="st1" d="M105.9,74.6c0-0.6-0.5-1.2-1.2-1.2c0,0,0,0,0,0l-6.2,0V38.6c0-3.3-2.7-6.1-6.1-6.1h-55
			c-3.3,0-6.1,2.7-6.1,6.1v34.9l-6.2,0c0,0,0,0,0,0c-0.6,0-1.2,0.5-1.2,1.2c0,0.1,0,0.1,0,0.2c0,1,0.3,2.7,1.6,4.1
			c1.2,1.2,3.1,1.9,5.5,1.9l67.8,0c2.4,0,4.2-0.6,5.5-1.9c1.3-1.3,1.6-3,1.6-4.1C105.9,74.7,105.9,74.7,105.9,74.6z M93.2,73.5
			l-18.8,0c-0.6,0-1,0.4-1.1,0.9c-0.1,0.6-0.6,1-1.2,1H57.9c-0.6,0-1.1-0.4-1.2-1c-0.1-0.5-0.6-0.9-1.1-0.9l-18.8,0V37.4h56.5V73.5z
			 M103.4,78c-1,1-2.5,1.5-4.6,1.5l-67.8,0c-2.1,0-3.6-0.5-4.6-1.5c-1-1.1-1.2-2.5-1.2-3.3l30.2,0c0.3,1.1,1.3,1.9,2.5,1.9H72
			c1.2,0,2.2-0.8,2.5-1.9l30.2-0.1C104.6,75.5,104.4,76.9,103.4,78z M32.7,38.6c0-2.6,2.2-4.8,4.8-4.8h55c2.6,0,4.8,2.2,4.8,4.8
			v34.9l-2.8,0V36.2h0h-59h0v37.3l-2.8,0V38.6z"/>
		<rect x="42.8" y="40.8" class="st1" width="0.4" height="29"/>
		<rect x="40.7" y="40.8" class="st1" width="0.4" height="3.5"/>
		<rect x="40.7" y="47.2" class="st1" width="0.4" height="3.4"/>
		<rect x="40.7" y="53.6" class="st1" width="0.4" height="3.4"/>
		<rect x="40.7" y="59.9" class="st1" width="0.4" height="3.4"/>
		<rect x="40.7" y="66.4" class="st1" width="0.4" height="3.4"/>
		<rect x="44.8" y="40.7" class="st1" width="30.2" height="0.4"/>
		<rect x="44.8" y="46.4" class="st1" width="42.7" height="0.4"/>
		<rect x="44.8" y="52.2" class="st1" width="24.6" height="0.4"/>
		<rect x="71.5" y="52.2" class="st1" width="8.2" height="0.4"/>
		<rect x="44.8" y="57.9" class="st1" width="30.2" height="0.4"/>
		<rect x="44.8" y="63.8" class="st1" width="42.7" height="0.4"/>
		<rect x="44.8" y="69.5" class="st1" width="24.6" height="0.4"/>
		<rect x="71.5" y="69.5" class="st1" width="8.2" height="0.4"/>
	</g>
	<g>
		<polygon class="st1" points="149,43.3 149,34.9 146.9,34.9 146.9,45 153.4,45 153.4,43.3 		"/>
		<polygon class="st1" points="143,45 145.1,45 145.1,34.9 142.4,34.9 139.8,42.2 137.2,34.9 134.5,34.9 134.5,45 136.6,45 
			136.6,42.2 136.3,37.5 139.1,45 140.5,45 143.2,37.5 143,42.2 		"/>
		<polygon class="st1" points="126.4,45 128.3,41.4 130.3,45 132.7,45 129.7,39.9 132.6,34.9 130.2,34.9 128.3,38.4 126.4,34.9 
			124,34.9 127,39.9 124,45 		"/>
		<path class="st1" d="M140.9,58.1c-0.3-0.1-0.7,0.1-0.8,0.4l-4,11.9c0,0,0,0,0,0c-0.1,0.3,0.1,0.7,0.4,0.8c0.3,0.1,0.7-0.1,0.8-0.4
			l4-11.9c0,0,0,0,0,0C141.3,58.5,141.2,58.2,140.9,58.1z"/>
		<path class="st1" d="M133,68.4l-7.6-3.8v0l7.6-3.8c0.2-0.1,0.3-0.3,0.3-0.5c0-0.1,0-0.2-0.1-0.3c-0.2-0.3-0.5-0.4-0.8-0.3
			l-8.1,4.2v0c-0.2,0.1-0.3,0.3-0.3,0.6v0.3c0,0.2,0.1,0.4,0.3,0.6l8.1,4.2c0.1,0,0.2,0.1,0.3,0.1c0.3,0,0.6-0.3,0.6-0.6
			C133.3,68.8,133.2,68.5,133,68.4z"/>
		<path class="st1" d="M153.1,63.9l-8.1-4.2c-0.1,0-0.2-0.1-0.3-0.1c-0.3,0-0.6,0.3-0.6,0.6c0,0.2,0.1,0.4,0.3,0.5l7.6,3.8v0
			l-7.6,3.8c-0.2,0.1-0.3,0.3-0.3,0.5c0,0.1,0,0.2,0.1,0.3c0.2,0.3,0.5,0.4,0.8,0.3l8.1-4.2c0.2-0.1,0.3-0.3,0.3-0.6v-0.3
			C153.4,64.2,153.3,64,153.1,63.9z"/>
	</g>
	<g>
		<path class="st2" d="M152.5,16.8c0,0-0.1-0.1-0.1-0.1c-0.1-0.1-0.3-0.1-0.4-0.1h-36c-0.4,0-0.7,0.3-0.7,0.7v62.1
			c0,0.4,0.3,0.7,0.7,0.7h45.3c0.1,0,0.2,0,0.3-0.1l0,0l0,0c0.1,0,0.2-0.1,0.2-0.2c0,0,0.1-0.1,0.1-0.1c0,0,0-0.1,0.1-0.1
			c0-0.1,0.1-0.2,0.1-0.3V26.6c0-0.2-0.1-0.4-0.2-0.5L152.5,16.8z M152.7,19l7.1,7.1h-7.1V19z M160.6,78.7h-43.8V18h34.5v8.9
			c0,0.4,0.3,0.7,0.7,0.7h8.6V78.7z"/>
		<path class="st2" d="M175.3,42.3l-1.6-5.1c0,0,0-0.1-0.1-0.1c-0.1-0.2-0.2-0.3-0.4-0.3c-0.1,0-0.1,0-0.2,0c-0.3,0-0.5,0.2-0.6,0.4
			l-1.7,5.2c0,0,0,0,0,0.1v37.1c0,0.1,0,0.2,0.1,0.3c0.1,0.3,0.3,0.4,0.6,0.4h3.3c0.3,0,0.6-0.3,0.6-0.6v-37
			C175.4,42.4,175.3,42.3,175.3,42.3z M174.1,78.9H172V42.6l1-3.3l1,3.2V78.9z"/>
	</g>
</g>
</svg>
