<?xml version="1.0" encoding="utf-8"?>
<!-- Generator: Adobe Illustrator 23.0.4, SVG Export Plug-In . SVG Version: 6.00 Build 0)  -->
<svg version="1.1" id="Layer_1" xmlns="http://www.w3.org/2000/svg" xmlns:xlink="http://www.w3.org/1999/xlink" x="0px" y="0px"
	 viewBox="0 0 81 100" style="enable-background:new 0 0 81 100;" xml:space="preserve">
<style type="text/css">
	.st0{fill:#685BC6;}
</style>
<g>
	<polygon class="st0" points="52.4,44.2 52.4,34.5 50,34.5 50,46.1 57.5,46.1 57.5,44.2 	"/>
	<polygon class="st0" points="45.5,46.1 47.9,46.1 47.9,34.5 44.8,34.5 41.8,42.9 38.8,34.5 35.6,34.5 35.6,46.1 38,46.1 38,42.9 
		37.8,37.4 41,46.1 42.6,46.1 45.8,37.4 45.5,42.9 	"/>
	<polygon class="st0" points="26.3,46.1 28.6,42 30.8,46.1 33.6,46.1 30.1,40.2 33.5,34.5 30.7,34.5 28.6,38.5 26.4,34.5 23.6,34.5 
		27,40.2 23.5,46.1 	"/>
	<path class="st0" d="M43,61.3c-0.4-0.1-0.8,0.1-0.9,0.4l-4.6,13.8c-0.1,0.4,0.1,0.8,0.4,0.9c0.4,0.1,0.8-0.1,0.9-0.4l4.6-13.8
		C43.6,61.8,43.4,61.4,43,61.3z"/>
	<path class="st0" d="M33.9,73.2l-8.7-4.4v0l8.7-4.4c0.2-0.1,0.4-0.4,0.4-0.6c0-0.1,0-0.2-0.1-0.3c-0.2-0.4-0.6-0.5-1-0.3L23.9,68
		c-0.2,0.1-0.4,0.4-0.4,0.6V69c0,0.3,0.2,0.5,0.4,0.6l9.4,4.8c0.1,0.1,0.2,0.1,0.3,0.1c0.4,0,0.7-0.3,0.7-0.7
		C34.3,73.6,34.2,73.3,33.9,73.2z"/>
	<path class="st0" d="M57.1,68l-9.4-4.8c-0.1-0.1-0.2-0.1-0.3-0.1c-0.4,0-0.7,0.3-0.7,0.7c0,0.3,0.1,0.5,0.4,0.6l8.7,4.4v0l-8.7,4.4
		c-0.2,0.1-0.4,0.4-0.4,0.6c0,0.1,0,0.2,0.1,0.3c0.2,0.4,0.6,0.5,1,0.3l9.4-4.8c0.2-0.1,0.4-0.4,0.4-0.6v-0.4
		C57.5,68.4,57.3,68.1,57.1,68z"/>
	<path class="st0" d="M67.5,24.1L56.7,13.3h0H13.5v73.4h54V24.1z M56.7,16.2l8.2,8.2h-8.2V16.2z M15.2,85V15H55v10.2v0v0.8h0h0.7
		c0.1,0,0.1,0,0.2,0c0.1,0,0.1,0,0.2,0h0.7h9.1v59H15.2z"/>
</g>
</svg>
