<?xml version="1.0" encoding="utf-8"?>
<!-- Generator: Adobe Illustrator 23.0.4, SVG Export Plug-In . SVG Version: 6.00 Build 0)  -->
<svg version="1.1" id="Layer_1" xmlns="http://www.w3.org/2000/svg" xmlns:xlink="http://www.w3.org/1999/xlink" x="0px" y="0px"
	 viewBox="0 0 200 100" style="enable-background:new 0 0 200 100;" xml:space="preserve">
<style type="text/css">
	.st0{opacity:0.15;fill:#444444;enable-background:new    ;}
	.st1{opacity:0.6;fill:#444444;}
	.st2{fill:#444444;}
	.st3{opacity:0.6;fill:#444444;enable-background:new    ;}
</style>
<g>
	<path id="Fill_18-5_1_" class="st0" d="M193.4,81.2c0,1.2-41.8,2.2-93.4,2.2s-93.4-1-93.4-2.2C6.6,80,48.4,79,100,79
		S193.4,80,193.4,81.2"/>
	<g>
		<path class="st1" d="M105.9,74.6c0-0.6-0.5-1.2-1.2-1.2c0,0,0,0,0,0l-6.2,0V38.6c0-3.3-2.7-6.1-6.1-6.1h-55
			c-3.3,0-6.1,2.7-6.1,6.1v34.9l-6.2,0c0,0,0,0,0,0c-0.6,0-1.2,0.5-1.2,1.2c0,1,0.2,2.8,1.6,4.3c1.2,1.2,3.1,1.9,5.5,1.9l67.8,0
			c2.4,0,4.2-0.6,5.5-1.9C105.7,77.4,105.9,75.6,105.9,74.6z M32.7,38.6c0-2.6,2.2-4.8,4.8-4.8h55c2.6,0,4.8,2.2,4.8,4.8v34.9
			l-2.8,0V36.2h0h-59h0v37.3l-2.8,0V38.6z M93.2,37.5v36l-18.8,0c-0.6,0-1,0.4-1.1,0.9c-0.1,0.6-0.6,1-1.2,1H57.9
			c-0.6,0-1.1-0.4-1.2-1c-0.1-0.5-0.6-0.9-1.1-0.9l-18.8,0V37.5H93.2z M103.4,78c-1,1-2.5,1.5-4.6,1.5l-67.8,0
			c-2.1,0-3.6-0.5-4.6-1.5c-1-1.1-1.2-2.5-1.2-3.3l30.2,0c0.3,1.1,1.3,1.9,2.5,1.9H72c1.2,0,2.2-0.8,2.5-1.9l30.2-0.1
			C104.6,75.5,104.4,76.9,103.4,78z"/>
		<path class="st1" d="M62.9,62.3H67c0,0,0,0,0,0c0.2,0,0.4-0.2,0.3-0.4L67,54.4c0-0.2-0.2-0.3-0.4-0.3h-3.4c-0.2,0-0.4,0.2-0.4,0.3
			L62.5,62c0,0,0,0,0,0C62.5,62.2,62.7,62.3,62.9,62.3z M65.9,60.7c0,0.5-0.4,0.9-0.9,0.9c-0.5,0-0.9-0.4-1-0.9v-2.3
			c0-0.5,0.4-0.9,0.9-0.9l0,0c0.5,0,0.9,0.4,0.9,0.9V60.7z M63.6,55.1c0-0.2,0.2-0.4,0.4-0.4l1.9,0c0.2,0,0.4,0.2,0.4,0.4v1.4
			c0,0.2-0.2,0.4-0.4,0.4H64c-0.2,0-0.4-0.2-0.4-0.4V55.1z"/>
		<rect x="63" y="52" class="st1" width="1.9" height="0.4"/>
		<rect x="65" y="50.4" class="st1" width="1.9" height="0.4"/>
		<rect x="63" y="48.4" class="st1" width="1.9" height="0.4"/>
		<rect x="65" y="46.8" class="st1" width="1.9" height="0.4"/>
		<rect x="63" y="44.8" class="st1" width="1.9" height="0.4"/>
		<rect x="65" y="43.2" class="st1" width="1.9" height="0.4"/>
		<rect x="63" y="41.2" class="st1" width="1.9" height="0.4"/>
		<rect x="65" y="39.6" class="st1" width="1.9" height="0.4"/>
	</g>
	<g>
		<rect x="137.4" y="34.9" class="st2" width="2.1" height="10.1"/>
		<polygon class="st2" points="135.8,43.3 130.7,43.3 135.7,36.1 135.7,34.9 128.1,34.9 128.1,36.6 133.1,36.6 128.1,43.8 128.1,45 
			135.8,45 		"/>
		<path class="st2" d="M148.6,36.5c-0.3-0.5-0.8-0.9-1.3-1.2c-0.6-0.3-1.3-0.4-2-0.4h-4V45h2.1v0v-3.6h1.8c1.2,0,2.1-0.3,2.8-0.9
			c0.7-0.6,1.1-1.4,1-2.3C149,37.6,148.9,37,148.6,36.5z M146.5,39.4c-0.4,0.3-0.8,0.4-1.3,0.4h-1.9v-3.2h1.9c0.5,0,0.9,0.2,1.2,0.5
			c0.3,0.3,0.5,0.8,0.4,1.2C147,38.7,146.8,39.1,146.5,39.4z"/>
		<path class="st2" d="M136.2,49.9h1.7c0.4,0,0.7-0.3,0.7-0.7c0-0.4-0.3-0.7-0.7-0.7h-1.7c-0.4,0-0.7,0.3-0.7,0.7
			C135.4,49.6,135.8,49.9,136.2,49.9z"/>
		<path class="st2" d="M140.9,50.4h-1.6c-0.4,0-0.7,0.3-0.7,0.7c0,0.4,0.3,0.7,0.7,0.7h1.6c0.4,0,0.7-0.3,0.7-0.7
			C141.6,50.7,141.3,50.4,140.9,50.4z"/>
		<path class="st2" d="M136.2,53.9h1.5c0.4,0,0.8-0.3,0.8-0.8c0-0.4-0.3-0.8-0.8-0.8h-1.5c-0.4,0-0.8,0.3-0.8,0.8
			C135.4,53.5,135.8,53.9,136.2,53.9z"/>
		<path class="st2" d="M140.9,54.3h-1.6c-0.4,0-0.7,0.3-0.7,0.7c0,0.4,0.3,0.7,0.7,0.7h1.6c0.4,0,0.7-0.3,0.7-0.7
			C141.6,54.7,141.3,54.3,140.9,54.3z"/>
		<path class="st2" d="M136.2,57.8h1.6c0.4,0,0.7-0.3,0.7-0.7c0-0.4-0.3-0.7-0.7-0.7h-1.6c-0.4,0-0.7,0.3-0.7,0.7
			C135.4,57.4,135.8,57.8,136.2,57.8z"/>
		<path class="st2" d="M140.9,58.3h-1.6c-0.4,0-0.7,0.3-0.7,0.7c0,0.4,0.3,0.7,0.7,0.7h1.6c0.4,0,0.7-0.3,0.7-0.7
			C141.6,58.6,141.3,58.3,140.9,58.3z"/>
		<path class="st2" d="M140.5,61.2h-3.9c-0.4,0-0.7,0.3-0.7,0.7l-0.4,9.2c0,0,0,0,0,0c0,0.4,0.3,0.7,0.7,0.7h4.7v0c0,0,0,0,0,0
			c0.4,0,0.7-0.3,0.7-0.7l-0.4-9.2C141.2,61.5,140.9,61.2,140.5,61.2z M139.7,69.8C139.7,69.8,139.7,69.8,139.7,69.8
			c0,0.7-0.6,1.2-1.2,1.2c-0.7,0-1.2-0.6-1.2-1.2v-2.9c0-0.7,0.5-1.2,1.2-1.2v0c0.7,0,1.2,0.5,1.2,1.2V69.8z M140.2,64.3
			c0,0.2-0.2,0.4-0.4,0.4h-2.4c-0.2,0-0.4-0.2-0.4-0.4v-1.8c0-0.2,0.2-0.4,0.4-0.4h2.4c0.2,0,0.4,0.2,0.4,0.4V64.3z"/>
	</g>
	<path id="Fill_62-4_1_" class="st3" d="M161.3,80.1H116c-0.4,0-0.7-0.3-0.7-0.7V17.3c0-0.4,0.3-0.7,0.7-0.7h36c0.1,0,0.3,0,0.4,0.1
		c0,0,0.1,0.1,0.1,0.1l9.3,9.3c0.1,0.1,0.2,0.2,0.2,0.4c0,0.1,0,0.1,0,0.2v52.8c0,0.2-0.1,0.4-0.2,0.5c0,0,0,0,0,0c0,0,0,0,0,0
		C161.7,80.1,161.5,80.1,161.3,80.1z M116.8,18v60.6h43.8v-51H152c-0.4,0-0.7-0.3-0.7-0.7V18H116.8z M152.7,19.1v7.1h7.1L152.7,19.1
		z"/>
	<path id="Fill_63_1_" class="st3" d="M174.7,80.1h-3.3c-0.3,0-0.5-0.2-0.6-0.4c0-0.1-0.1-0.2-0.1-0.3V42.4c0,0,0,0,0-0.1l1.7-5.2
		c0.1-0.3,0.3-0.4,0.6-0.4c0.1,0,0.1,0,0.2,0c0.2,0.1,0.3,0.2,0.4,0.3l0,0c0,0,0,0.1,0.1,0.1l1.6,5.1c0,0.1,0,0.1,0,0.2v37
		C175.3,79.9,175.1,80.1,174.7,80.1z M173.1,39.3l-1,3.3v36.3h2.1V42.6L173.1,39.3z"/>
</g>
</svg>
