<?xml version="1.0" encoding="utf-8"?>
<!-- Generator: Adobe Illustrator 23.0.4, SVG Export Plug-In . SVG Version: 6.00 Build 0)  -->
<svg version="1.1" id="Layer_1" xmlns="http://www.w3.org/2000/svg" xmlns:xlink="http://www.w3.org/1999/xlink" x="0px" y="0px"
	 viewBox="0 0 81 100" style="enable-background:new 0 0 81 100;" xml:space="preserve">
<style type="text/css">
	.st0{fill:#444444;}
</style>
<g>
	<rect x="39" y="34.5" class="st0" width="2.4" height="11.7"/>
	<polygon class="st0" points="37.1,44.2 31.2,44.2 37,35.8 37,34.5 28.2,34.5 28.2,36.4 34,36.4 28.2,44.7 28.2,46.1 37.1,46.1 	"/>
	<path class="st0" d="M50.4,34.9c-0.7-0.3-1.5-0.5-2.3-0.5h-4.6v11.7h2.4v0V42H48c1.2,0.1,2.3-0.3,3.3-1c0.8-0.7,1.2-1.7,1.2-2.7
		c0-0.7-0.2-1.4-0.5-2C51.5,35.7,51,35.2,50.4,34.9z M49.5,39.6c-0.4,0.3-0.9,0.5-1.5,0.4h-2.2v-3.7h2.2c0.5,0,1,0.2,1.4,0.5
		c0.3,0.4,0.5,0.9,0.5,1.4C50.1,38.8,49.9,39.3,49.5,39.6z"/>
	<path class="st0" d="M36.8,51c0,0.5,0.4,0.8,0.8,0.8h1.9c0.5,0,0.8-0.4,0.8-0.8c0-0.5-0.4-0.8-0.8-0.8h-1.9
		C37.1,50.2,36.8,50.5,36.8,51z"/>
	<path class="st0" d="M43.1,52.3h-1.9c-0.5,0-0.8,0.4-0.8,0.8c0,0.5,0.4,0.9,0.8,0.9h1.9c0,0,0,0,0,0c0.5,0,0.8-0.4,0.8-0.9
		C43.9,52.7,43.5,52.3,43.1,52.3z"/>
	<path class="st0" d="M39.4,54.6h-1.8c-0.5,0-0.9,0.4-0.9,0.9c0,0.5,0.4,0.9,0.9,0.9h1.8c0.5,0,0.9-0.4,0.9-0.9
		C40.3,55,39.9,54.6,39.4,54.6z"/>
	<path class="st0" d="M43.1,56.9h-1.9c-0.5,0-0.9,0.4-0.9,0.9c0,0.5,0.4,0.9,0.9,0.9h1.9c0,0,0,0,0,0c0.5,0,0.9-0.4,0.9-0.9
		C43.9,57.3,43.5,56.9,43.1,56.9z"/>
	<path class="st0" d="M37.6,60.9h1.9c0.5,0,0.9-0.4,0.9-0.9c0-0.5-0.4-0.9-0.9-0.9h-1.9c-0.5,0-0.9,0.4-0.9,0.9
		C36.8,60.5,37.1,60.9,37.6,60.9z"/>
	<path class="st0" d="M43.1,61.4h-1.9c0,0,0,0,0,0c-0.5,0-0.8,0.4-0.8,0.9c0,0.5,0.4,0.8,0.8,0.8h1.9c0.5,0,0.9-0.4,0.9-0.9
		C43.9,61.8,43.5,61.4,43.1,61.4z"/>
	<path class="st0" d="M42.6,64.8h-4.5c-0.4,0-0.8,0.3-0.8,0.8l-0.5,10.7c0,0,0,0,0,0c0,0.5,0.4,0.8,0.8,0.8h5.4v0c0,0,0,0,0,0
		c0.5,0,0.8-0.4,0.8-0.9l-0.5-10.7C43.4,65.2,43,64.8,42.6,64.8z M41.7,74.7c0,0.8-0.6,1.4-1.4,1.4c-0.8,0-1.4-0.6-1.4-1.4v-3.3
		c0-0.8,0.6-1.4,1.4-1.4c0.8,0,1.4,0.6,1.4,1.4V74.7z M42.3,68.4c0,0.3-0.2,0.5-0.5,0.5h-2.8c-0.3,0-0.5-0.2-0.5-0.5v-2.1
		c0-0.3,0.2-0.5,0.5-0.5h2.8c0.3,0,0.5,0.2,0.5,0.5V68.4z"/>
	<path class="st0" d="M67.5,85.7V24.9c0-0.1,0-0.2-0.1-0.4c0-0.1-0.1-0.2-0.2-0.3L56.6,13.6c0,0-0.1-0.1-0.1-0.1
		c-0.2-0.2-0.4-0.3-0.6-0.3c-0.1,0-0.1,0-0.2,0H14.5c-0.1,0-0.1,0-0.2,0c-0.2,0-0.4,0.1-0.6,0.2c0,0,0,0,0,0c0,0,0,0,0,0
		c-0.1,0.1-0.2,0.3-0.2,0.6c0,0.1,0,0.1,0,0.2v71.4c0,0.1,0,0.1,0,0.2c0,0.2,0.1,0.4,0.3,0.6c0.2,0.2,0.4,0.3,0.6,0.2
		c0.1,0,0.1,0,0.2,0h52.1c0,0,0,0,0,0c0.5,0,0.8-0.4,0.8-0.9C67.5,85.8,67.5,85.7,67.5,85.7z M56.7,16.2l8.2,8.2h-8.2V16.2z
		 M65.8,85H15.2V15H55v10.2c0,0,0,0,0,0c0,0.5,0.4,0.8,0.9,0.8c0.1,0,0.1,0,0.2,0h9.7V85z"/>
</g>
</svg>
